<?xml version="1.0" encoding="UTF-8"?>
<!-- Generator: visioncortex VTracer 0.6.4 -->
<svg version="1.1" xmlns="http://www.w3.org/2000/svg" viewBox="0 0 1024 1024" width="1024" height="1024">
<path d="M0 0 C5.01 2.78 6.8 6.94 9 12 C9.3 12.68 9.6 13.37 9.91 14.07 C10.62 15.71 11.31 17.35 12 19 C13.58 18.85 13.58 18.85 15.19 18.69 C19 19 19 19 21.94 21.06 C24.53 24.76 24.71 26.57 24 31 C21.85 35.12 19.5 36.37 15.25 37.81 C13.84 38.22 12.42 38.63 11 39 C7.75 50.35 9.82 57.67 15.21 67.96 C16.67 70.43 17.84 72.16 20 74 C20.33 73.43 20.65 72.87 20.99 72.29 C21.43 71.55 21.86 70.82 22.31 70.06 C22.74 69.33 23.17 68.6 23.61 67.85 C25 66 25 66 28 65 C33.25 64.74 37.05 65.02 42 67 C43.46 64.16 44.07 62.51 43.62 59.31 C41.43 56.19 39.58 56.28 35.97 55.59 C32.85 54.66 31.65 52.7 30 50 C28.47 45.41 28.44 41.58 30.06 37 C34.84 29.61 40.03 25.64 48.5 23.31 C57.18 22.23 65.06 23.61 72.25 28.75 C73.52 29.8 74.78 30.89 76 32 C76.56 32.5 77.11 33.01 77.69 33.52 C83.71 39.7 86.16 48.13 86.44 56.62 C85.9 68.65 80.55 79.31 71.8 87.53 C68.72 90.04 65.1 93 61 93 C65.52 98.22 69.85 100.52 76.75 101.32 C81.39 101.51 84.34 101.32 88.56 99.25 C91.62 96.6 91.62 96.6 93 93 C92.53 92.09 92.05 91.19 91.56 90.25 C89.94 86.87 89.65 84.74 90.28 81.03 C91.77 76.81 94.99 73.01 99 71 C103.67 70.43 107.12 70.56 111.38 72.69 C114 75 114 75 115.25 77.62 C117.78 81.05 120.44 80.84 124.5 81.5 C130.35 82.67 133.18 86.02 136.38 90.75 C137.26 92.16 138.14 93.57 139 95 C139.93 94.46 139.93 94.46 140.87 93.91 C146.7 90.71 151.33 88.85 158 90 C163.67 91.96 167.31 95.63 170 101 C170.52 106.66 170.75 111.42 167 116 C166.41 116.87 166.41 116.87 165.81 117.75 C162.84 119.8 159.56 120.03 156 120 C153.5 119.06 153.5 119.06 152 118 C151.1 125.94 154.28 133.12 158.8 139.56 C164.34 146.13 171.41 152.17 180 154 C182.69 154.14 185.3 154.09 188 154 C187.65 153.15 187.3 152.31 186.94 151.44 C185.83 147.38 185.91 145.06 187 141 C188.87 137.84 191.14 135.55 194.25 133.56 C199.14 132.56 203.7 132.62 208.07 135.23 C211.51 138.02 214.07 140.55 215 145 C215.14 148.01 215.12 150.99 215 154 C215.57 153.84 216.14 153.68 216.73 153.52 C221.71 152.38 226.42 152.45 231.25 154.12 C236.45 157.67 238.99 160.89 240.5 166.94 C241.48 173.11 239.87 176.39 236.25 181.44 C233.03 183.68 230.84 183.48 227 183 C224.69 181.5 224.69 181.5 223 180 C222.34 180 221.68 180 221 180 C215.81 188.58 216.6 197.02 218.86 206.47 C221.81 215.59 227.62 223.91 234 231 C234.66 231.33 235.32 231.66 236 232 C236.12 230.58 236.12 230.58 236.25 229.12 C238.02 217.23 244.9 208.06 253.95 200.5 C262.01 194.58 270.13 193.25 280 194 C286.06 195.24 290.93 198.37 295 203 C300.02 211.04 300.77 218.61 300 228 C298.64 232.46 296.38 235.8 293 239 C291.35 238.67 289.7 238.34 288 238 C287.84 237.4 287.68 236.79 287.52 236.17 C286 230.97 284.81 227.96 280 225 C276.93 223.46 274.4 223.77 271 224 C265.21 226.08 261.63 229.73 258.89 235.24 C254.79 248.01 259.13 262.33 264.86 273.88 C265.56 275.23 266.26 276.56 266.97 277.9 C267.36 278.63 267.74 279.36 268.14 280.11 C272.77 288.64 278.15 296.65 283.56 304.69 C290.44 314.94 297.02 325.2 303 336 C303.69 337.21 304.38 338.42 305.07 339.63 C311.27 350.58 315.68 362.2 320 374 C320.3 374.82 320.6 375.65 320.92 376.5 C324.88 387.48 327.82 398.53 330 410 C330.23 411.18 330.45 412.36 330.69 413.57 C332.98 427.25 332.49 440.76 330.45 454.41 C327.06 481.25 332.44 514.14 349 536 C354.59 542.18 361.76 546.03 369 550 C367.62 553.4 366.37 554.61 363.12 556.25 C359.87 558.14 358.42 559.54 356.94 563 C354.91 567.58 352.61 569.97 348 572 C343.37 573.26 338.73 574.19 334 575 C334.64 575.83 335.28 576.65 335.94 577.5 C338.36 581.18 339.22 584.6 339 589 C337.55 593.59 335.97 597.18 332 600 C327.64 601.71 323.63 602.62 319.12 601 C315.42 598.63 314.29 597.19 313 593 C313.31 589.12 313.31 589.12 314 586 C304.97 585.31 297.51 587.01 290.25 592.62 C281.4 600.89 278.89 611.38 278 623 C278.83 622.48 279.65 621.97 280.5 621.44 C284.75 619.69 287.66 619.52 292 621 C295.88 624.14 297.71 626.44 298.27 631.45 C298.45 636.38 298.51 640.04 295.62 644.19 C294.76 645.12 293.89 646.04 293 647 C292.34 647 291.68 647 291 647 C291.42 647.54 291.84 648.09 292.28 648.64 C292.83 649.36 293.37 650.08 293.94 650.81 C294.48 651.52 295.03 652.23 295.59 652.96 C298.58 657.29 298.61 661.92 298 667 C296.7 670.7 294.74 673.36 291.75 675.94 C288.08 677.36 284.83 677.81 281 677 C278.35 675.56 276.33 673.94 274 672 C253.65 684.3 247.09 714.22 240.29 735.38 C230.59 765.38 213.63 791.06 185 806 C165.83 815.73 147.54 820.43 126 818 C124.04 817.81 122.08 817.62 120.12 817.44 C118.75 817.29 117.37 817.15 116 817 C115.97 817.58 115.95 818.16 115.92 818.76 C115.53 824.22 114.67 827.71 111 832 C107.34 835.14 103.9 835.58 99.22 835.42 C94.74 834.57 92.27 831.74 89.62 828.12 C88.34 823.76 88.35 820.21 90.5 816.19 C91 815.47 91.49 814.74 92 814 C92 813.34 92 812.68 92 812 C84.28 808.26 77.11 808.63 69 810.93 C61.14 813.73 55.4 817.45 51.05 824.68 C49.47 828.18 49.14 831.17 49 835 C50.05 834.77 51.1 834.55 52.19 834.31 C56.48 833.96 57.74 834.29 61 837 C63.95 840.57 64.47 843.59 64.29 848.08 C63.6 852.68 60.54 856.17 57 859 C53.75 859.75 53.75 859.75 51 860 C51.36 860.46 51.72 860.92 52.09 861.4 C55.48 866.16 56.8 869.87 56.49 875.74 C55.72 879.31 53.82 880.8 51 883 C46.08 887.08 45.06 890.3 44 896.31 C42.28 904.58 40.35 910.7 33.38 915.94 C28.61 918.85 25.51 919.1 20 919 C19.71 920.16 19.71 920.16 19.41 921.34 C19.15 922.34 18.89 923.34 18.62 924.38 C18.37 925.37 18.11 926.37 17.85 927.4 C17 930 17 930 15 932 C12.13 931.92 10.44 931.41 8.33 929.45 C4 924.49 4 924.49 4 922 C3.34 922 2.68 922 2 922 C1.81 922.68 1.63 923.36 1.44 924.06 C-0.6 928.22 -3.25 931.27 -7 934 C-10 934.5 -10 934.5 -13 933 C-15.59 930.17 -17.78 927.12 -20 924 C-20.66 923.34 -21.32 922.68 -22 922 C-22.45 922.64 -22.89 923.28 -23.36 923.93 C-23.96 924.76 -24.56 925.59 -25.19 926.44 C-26.08 927.67 -26.08 927.67 -26.98 928.93 C-29.32 931.33 -30.72 931.69 -34 932 C-34.67 930.4 -35.34 928.79 -36 927.19 C-36.37 926.29 -36.74 925.4 -37.12 924.48 C-38 922 -38 922 -38 919 C-39.49 919.12 -39.49 919.12 -41 919.25 C-46.34 919.22 -50.61 917.21 -54.51 913.6 C-58.84 909.05 -60.13 905.06 -61.06 898.94 C-62.08 892.46 -63.29 888.71 -68 884 C-69.65 882.97 -71.31 881.96 -73 881 C-75.51 877.24 -75.75 874.35 -75 870 C-73.58 866.52 -71.87 863.26 -70 860 C-70.77 859.87 -71.54 859.74 -72.34 859.61 C-76.89 858.57 -79.26 856.07 -81.88 852.31 C-83.37 847.92 -83.33 844.45 -82 840 C-79.49 836.56 -77.98 835.27 -73.88 834.12 C-71 834 -71 834 -68 835 C-68.11 828.18 -69.39 824.29 -73.85 819.08 C-80.55 812.6 -88.52 808.9 -97.87 809.04 C-102.4 809.36 -106.01 809.73 -110 812 C-109.69 812.68 -109.38 813.36 -109.06 814.06 C-107.28 818.99 -106.61 822.57 -108 827.69 C-110.43 831.71 -112.59 833.48 -117 835 C-122.02 835.61 -125 835.13 -129 832 C-132.92 827.86 -134.88 823.86 -135.12 818.12 C-135.08 817.42 -135.04 816.72 -135 816 C-136.15 816.31 -137.31 816.62 -138.5 816.94 C-162.59 822.9 -188.12 815.7 -209 803.28 C-214.49 799.76 -219.25 795.45 -224 791 C-224.82 790.26 -225.64 789.52 -226.48 788.76 C-244.05 772.22 -252.13 749.07 -259.38 726.68 C-268.51 695.32 -268.51 695.32 -290 672 C-293 672.1 -294.02 673.02 -296.25 675.06 C-299.28 677.2 -301.31 677.6 -305.01 677.38 C-309.16 676.59 -311.79 674.61 -314.29 671.27 C-316.84 666.91 -317.57 663.24 -316.76 658.25 C-315.4 654.22 -312.8 651.15 -310 648 C-310.63 647.4 -310.63 647.4 -311.28 646.79 C-312.1 646 -312.1 646 -312.94 645.19 C-313.48 644.67 -314.03 644.14 -314.59 643.61 C-317.65 640.12 -317.33 635.9 -317.28 631.51 C-316.86 627.75 -315.54 625.75 -313 623 C-309.37 620.5 -307.67 619.94 -303.25 620.31 C-302.18 620.54 -301.11 620.77 -300 621 C-299.34 621 -298.68 621 -298 621 C-297.24 610.99 -300.67 602.59 -307.08 594.94 C-312.97 588.99 -320.03 585.92 -328.44 585.88 C-330.2 585.94 -330.2 585.94 -332 586 C-332.04 588.98 -332.04 588.98 -331.75 591.88 C-332.07 595.85 -333.17 597.25 -336 600 C-339.63 602.22 -342.81 602.27 -347 601.61 C-351.05 600.37 -353.95 597.73 -356.14 594.11 C-358.12 589.25 -357.53 584.32 -355.62 579.56 C-354 577 -354 577 -352 575 C-352.94 574.83 -353.88 574.66 -354.85 574.48 C-369.44 571.65 -369.44 571.65 -373.62 565.7 C-374.79 563.94 -375.96 562.18 -377.12 560.42 C-379.84 556.92 -383.06 554.94 -387 553 C-387 551.68 -387 550.36 -387 549 C-386.37 548.72 -385.74 548.44 -385.09 548.15 C-370.48 541.31 -362.59 529.96 -357 515 C-354.24 506.14 -352.22 497.2 -351 488 C-350.89 487.19 -350.78 486.38 -350.66 485.55 C-349.32 473.83 -348.88 461.06 -351 449.44 C-356.8 416.68 -344.83 382.22 -331 353 C-330.33 351.57 -330.33 351.57 -329.64 350.11 C-321.69 333.42 -312.3 318.28 -301.83 303.07 C-280.52 272.26 -280.52 272.26 -276 236 C-277.52 231.28 -280.18 228.29 -284.19 225.44 C-288.71 223.22 -293.25 223.63 -298 225 C-302.88 228.42 -304.24 232.52 -306 238 C-307.32 238.33 -308.64 238.66 -310 239 C-315.04 234.5 -317.61 230.64 -318.32 223.98 C-318.64 214.93 -316.75 209.21 -311.88 201.75 C-306.4 196.52 -299.48 193.37 -291.94 192.75 C-280.51 193.48 -271.79 197.83 -263.93 206.21 C-257.75 213.85 -253.69 221.3 -252 231 C-242.11 220.01 -233.47 206.99 -233.73 191.64 C-234.18 187.24 -235.51 183.16 -237 179 C-237.85 179.66 -238.69 180.32 -239.56 181 C-243.55 183.32 -245.47 183.74 -250 183 C-253.16 180.47 -255.77 177.9 -257 174 C-257.45 168.38 -257.24 164.8 -254 160 C-249.33 155.39 -246.25 152.86 -239.56 152.88 C-238.59 152.87 -237.63 152.87 -236.63 152.87 C-234 153 -234 153 -231 154 C-231.23 152.99 -231.45 151.98 -231.69 150.94 C-232.06 146.26 -231.26 144.08 -229 140 C-225.2 135.62 -222.49 133.34 -216.75 132.56 C-211.98 133.12 -208.61 134.85 -205 138 C-203.14 140.89 -202.73 143.15 -202.75 146.56 C-202.74 147.71 -202.74 147.71 -202.73 148.88 C-203 151 -203 151 -205 154 C-195.74 155.34 -188.6 151.87 -181 147 C-178.2 144.58 -176.08 142.05 -174 139 C-173.28 137.97 -173.28 137.97 -172.55 136.93 C-168.43 130.71 -166.7 125.56 -167 118 C-168.02 118.53 -168.02 118.53 -169.06 119.06 C-172.87 120.28 -175.15 120.03 -179 119 C-182.32 116.19 -184.76 114.05 -185.27 109.64 C-185.48 103.82 -185.29 99.88 -181.41 95.37 C-177.21 91.29 -173.28 90.36 -167.57 89.93 C-162.36 90.08 -158.31 92.13 -154 95 C-153.64 94.4 -153.27 93.79 -152.9 93.17 C-149.05 87.06 -146.01 83.34 -139 81 C-137.61 80.93 -136.21 80.91 -134.81 80.94 C-133.55 80.96 -132.3 80.98 -131 81 C-130.66 79.89 -130.66 79.89 -130.31 78.75 C-128.66 75.28 -127.31 73.97 -124 72 C-119.35 70.64 -115.47 70.36 -111.12 72.69 C-107.24 75.56 -105.5 77.23 -104.19 81.88 C-103.97 85.43 -104.8 87.67 -106 91 C-106.58 93.59 -106.58 93.59 -106 96 C-100.62 101.1 -96.7 101.39 -89.48 101.36 C-84.35 100.83 -80.21 98.97 -76 96 C-75.67 95.34 -75.34 94.68 -75 94 C-75.7 93.61 -76.4 93.22 -77.12 92.82 C-86.45 87.32 -93.52 80.43 -97 70 C-99.14 61.18 -99.39 50.66 -95.45 42.34 C-90.31 34.04 -83.28 26.79 -73.56 24.4 C-65.13 23.09 -57.43 23.52 -50 28 C-45.1 32.02 -42.02 36.45 -41.02 42.76 C-40.98 47.53 -42.51 51.46 -45.81 54.88 C-48.47 56.24 -51.14 57.16 -54 58 C-54.77 60.81 -54.77 60.81 -55 64 C-53.69 66.36 -53.69 66.36 -52 68 C-51.16 67.29 -51.16 67.29 -50.31 66.56 C-47.66 64.77 -46.21 64.15 -43 64 C-38.49 65.32 -36.53 66.13 -34.06 70.19 C-33.71 71.12 -33.36 72.04 -33 73 C-26.81 69.11 -24.22 63.05 -22.17 56.25 C-20.73 49.74 -21.2 44.4 -23 38 C-23.89 38.08 -24.77 38.16 -25.69 38.25 C-29.77 37.94 -31.14 36.86 -34 34 C-36.1 31.23 -36 29.99 -35.81 26.44 C-35 23 -35 23 -33.94 21.12 C-31.78 19.87 -30.34 19.7 -27.88 19.43 C-26.6 19.29 -25.32 19.15 -24 19 C-23.26 17.34 -23.26 17.34 -22.5 15.64 C-21.81 14.18 -21.12 12.71 -20.44 11.25 C-20.11 10.52 -19.79 9.79 -19.46 9.04 C-15.42 0.58 -9.2 -2.65 0 0 Z M-13.82 7.03 C-16.07 10.78 -17.28 14.99 -18.59 19.14 C-20 22 -20 22 -22.48 23.39 C-25.09 24.02 -27.33 24.15 -30 24 C-31.22 25.77 -31.22 25.77 -32 28 C-31.07 30.7 -30.58 31.71 -28 33 C-23.95 33.46 -21.77 33.5 -18.31 31.25 C-15.5 27.3 -14.44 23.43 -13.02 18.83 C-11.62 14.94 -10.48 13.24 -7 11 C-3.69 11.19 -3.69 11.19 -1 12 C-0.82 12.64 -0.64 13.28 -0.45 13.94 C2.24 24.72 2.24 24.72 9 33 C12.52 33.43 14.86 33.7 17.94 31.81 C19.34 29.41 19.29 27.74 19 25 C18.67 24.67 18.34 24.34 18 24 C16.91 24.06 15.81 24.12 14.69 24.19 C11 24 11 24 8.92 22.36 C6.09 18.89 4.94 15.06 3.44 10.88 C1.77 7.53 0.12 6.02 -3 4 C-7.55 3.27 -10.63 3.44 -13.82 7.03 Z M-7 15 C-9.15 20.29 -11.28 25.55 -13 31 C-11.02 33.31 -9.04 35.62 -7 38 C-3.44 36.22 -1.64 34.83 1 32 C0.57 30.1 0.13 28.21 -0.31 26.31 C-0.68 24.73 -0.68 24.73 -1.05 23.11 C-1.99 20.02 -3.22 17.68 -5 15 C-5.66 15 -6.32 15 -7 15 Z M36.88 34.69 C34.59 38.72 33.66 42.36 34 47 C34.66 47.99 35.32 48.98 36 50 C39.27 49.26 39.27 49.26 40.88 46.06 C43.25 42.64 44 41.87 48 41 C54.22 40.22 59.12 40.59 64.3 44.33 C68.66 48.63 70.2 53.93 70.5 59.94 C70.09 67.89 67.56 73.95 61.75 79.44 C54.17 85.55 47.63 86.75 38 86 C28.07 84.92 19.02 81.44 12.61 73.54 C9.34 68.38 7.18 62.68 5 57 C-0.66 62.66 -3.72 74.67 -4.22 82.49 C-2.95 91.06 2.52 97.37 9.08 102.68 C16.34 107.66 23.71 109.64 32.44 108.31 C39.38 106.87 44.64 104.91 49.23 99.36 C49.75 98.73 50.28 98.1 50.82 97.45 C51.4 96.73 51.4 96.73 52 96 C50.83 96.07 50.83 96.07 49.63 96.14 C46.07 96.34 42.5 96.51 38.94 96.69 C37.09 96.8 37.09 96.8 35.21 96.91 C26.56 97.3 21.86 96.75 14.75 91.69 C10.28 87.32 8.73 83.14 8 77 C8.42 77.42 8.83 77.85 9.26 78.29 C19.48 88.02 31.2 92.39 45.22 92.29 C56.47 91.44 65.52 87.09 73.32 79.06 C80.32 70.46 81.93 60.8 81 50 C79.25 42.21 75.15 36.95 69 32 C59.34 26.13 45.16 26.04 36.88 34.69 Z M-86.38 37.25 C-87.29 38.47 -88.17 39.72 -89 41 C-89.62 41.93 -89.62 41.93 -90.25 42.89 C-94.5 50.63 -94.21 60.53 -92.34 68.97 C-89.06 78.16 -82.88 83.92 -74.62 88.77 C-63.15 94.14 -48.6 93.54 -36.84 89.33 C-28.52 85.43 -20.74 78.64 -17.12 70.06 C-15.75 65.96 -15.77 62.29 -16 58 C-16.66 58 -17.32 58 -18 58 C-18.22 58.63 -18.44 59.26 -18.66 59.91 C-22.6 70.53 -28.25 78.1 -38.5 83.26 C-47.5 87 -56.55 87.36 -65.88 84.5 C-72.69 81.68 -76.99 76.83 -79.94 70.12 C-81.86 64.05 -81.7 58.23 -79.81 52.19 C-77.25 47.68 -74.28 44.86 -70 42 C-63.88 40.63 -58.54 40.71 -53 44 C-51.44 47.19 -51.44 47.19 -51 50 C-49.02 49.65 -49.02 49.65 -47 49 C-45.25 45.49 -46.18 41.73 -47 38 C-49.7 33.13 -53.73 30.53 -59 29 C-69.69 27.63 -78.82 29.18 -86.38 37.25 Z M-17 34 C-19.29 36.69 -19.29 36.69 -18.66 39.05 C-18.39 39.82 -18.12 40.6 -17.84 41.39 C-17.54 42.26 -17.25 43.13 -16.94 44.02 C-16.44 45.4 -16.44 45.4 -15.94 46.81 C-15.45 48.22 -15.45 48.22 -14.95 49.65 C-13.98 52.44 -12.99 55.22 -12 58 C-11.47 59.5 -10.94 61 -10.41 62.5 C-9.29 65.67 -8.15 68.84 -7 72 C-4.08 70.54 -3.98 68.69 -2.91 65.64 C-2.52 64.55 -2.13 63.45 -1.72 62.32 C-1.32 61.16 -0.92 60 -0.5 58.81 C-0.1 57.67 0.31 56.54 0.72 55.37 C1.83 52.25 2.92 49.13 4 46 C4.38 44.95 4.76 43.89 5.15 42.8 C6.08 39.73 5.9 38.05 5 35 C3 35.79 3 35.79 1 37 C0.67 37.99 0.34 38.98 0 40 C-3.03 40.67 -5.89 41.14 -9 41 C-11.81 38.84 -13.42 37.15 -15 34 C-15.66 34 -16.32 34 -17 34 Z M45 47 C43.49 48.94 43.49 48.94 43 51 C43.33 51.66 43.66 52.32 44 53 C44.66 53 45.32 53 46 53 C48.09 57.18 49.03 61.4 48 66 C46.66 67.9 45.16 69.47 43.54 71.12 C40.93 74.31 40.02 78.07 39 82 C46.69 82.74 52.72 81.71 59 77 C64.49 70.64 66.36 65.06 66.29 56.73 C65.79 52 63.43 49.43 60.19 46.19 C54.64 43.17 50.17 43.51 45 47 Z M-74.88 51.06 C-77.64 55.83 -77.42 60.65 -77 66 C-75.24 72.5 -71.48 76.32 -66 80 C-61.07 82.36 -56.49 83.42 -51 83 C-52.5 77.16 -53.78 72.5 -58 68 C-59.72 64.55 -59.51 60.77 -59 57 C-56.94 54.19 -56.94 54.19 -55 52 C-54.75 49.82 -54.75 49.82 -56 48 C-58.44 46.1 -60.33 45.12 -63.38 44.56 C-68.03 45.34 -71.72 47.59 -74.88 51.06 Z M-14 68 C-14.29 68.83 -14.58 69.67 -14.88 70.53 C-18.66 80.9 -22.9 90.94 -33.26 96.13 C-36.62 97.2 -39.31 97.13 -42.83 96.98 C-44.12 96.93 -45.42 96.87 -46.75 96.82 C-48.1 96.76 -49.46 96.69 -50.81 96.62 C-52.19 96.57 -53.56 96.51 -54.94 96.45 C-58.29 96.31 -61.65 96.16 -65 96 C-60.99 102.45 -56.94 105.16 -50.19 108.31 C-40.5 110.4 -31.29 109 -22.69 104.12 C-16.51 99.24 -10.78 93.88 -9 86 C-8.35 79.24 -9.25 74.19 -12 68 C-12.66 68 -13.32 68 -14 68 Z M-48.25 71 C-48.83 71.66 -49.4 72.32 -50 73 C-49.43 76.93 -49.43 76.93 -47 80 C-42.95 80.34 -41.45 80.3 -38 78 C-38.26 74.57 -38.26 74.57 -39 71 C-42.75 68.5 -44.74 67.88 -48.25 71 Z M27.81 70.19 C25.6 72.4 25.33 73.94 25 77 C26.06 78.65 26.06 78.65 28 80 C31.63 80.25 31.63 80.25 35 80 C37.29 76.56 37.18 75.01 37 71 C33.54 68.69 31.58 68.14 27.81 70.19 Z M-126 80 C-128.21 84.09 -128.58 87.4 -128 92 C-125.39 99.38 -122.26 104.98 -115.39 108.95 C-111.64 110.6 -108.05 111.36 -104 112 C-104.41 111.41 -104.82 110.82 -105.24 110.21 C-105.78 109.42 -106.32 108.63 -106.88 107.81 C-107.41 107.04 -107.94 106.26 -108.49 105.46 C-111.26 100.94 -112.53 97.32 -112 92 C-111.46 90.84 -110.93 89.69 -110.38 88.5 C-108.68 85.1 -108.68 85.1 -109.62 81.75 C-111.21 78.3 -111.21 78.3 -114 76 C-119.53 75.39 -122.6 75.16 -126 80 Z M97.62 77 C95.16 80.03 94.77 83.21 95 87 C95.52 88.13 96.03 89.27 96.56 90.44 C98.49 95.2 97.78 98.28 96 103 C94 106.38 94 106.38 92 109 C91.34 109.99 90.68 110.98 90 112 C97.9 110.56 103.81 107.27 109.44 101.5 C113.25 95.39 113.9 89.08 113 82 C111.2 79 110.1 77.55 107 76 C103.52 75.74 100.87 75.64 97.62 77 Z M-144 89 C-146.96 92.12 -149.9 95.59 -150.08 100.04 C-149.79 102.38 -149.43 104.68 -149 107 C-148.79 108.18 -148.79 108.18 -148.57 109.38 C-147.35 114.29 -145.71 116.63 -141.5 119.5 C-134.29 123.83 -126.05 124.41 -117.88 122.5 C-113.5 121.23 -109.24 119.66 -105 118 C-105 117.34 -105 116.68 -105 116 C-105.63 115.84 -106.26 115.68 -106.91 115.52 C-115.85 113.08 -122.61 109.7 -128 102 C-130.8 96.7 -131.61 91.88 -132 86 C-136.86 84.33 -139.9 86.32 -144 89 Z M118 85 C117.93 85.75 117.85 86.5 117.77 87.27 C116.67 95.84 114.52 102.91 107.96 108.85 C102.73 112.61 97.22 114.52 91 116 C97.84 121.65 106.79 123.7 115.53 123.32 C120.84 122.63 125.63 120.33 129.64 116.77 C133.38 111.9 135.43 104.89 135.19 98.75 C133.58 93.67 131.23 90.26 127 87 C124.02 85.86 121.17 85.29 118 85 Z M-179.94 101.25 C-181.52 105.34 -181.03 107.73 -180 112 C-178.46 114.22 -178.46 114.22 -176 115 C-172.87 115.09 -172.87 115.09 -170 114 C-168.56 112.05 -168.56 112.05 -168 110 C-166.12 110.19 -166.12 110.19 -164 111 C-161.55 115.04 -161.38 119.41 -162 124 C-163.75 130.75 -166.57 136.39 -170.63 142.03 C-172.06 143.95 -172.06 143.95 -172.93 146.13 C-174.29 148.51 -175.52 148.92 -178 150 C-179.41 150.96 -180.8 151.95 -182.19 152.94 C-190.38 158.39 -198.16 160.06 -208 159 C-210.8 158.17 -210.8 158.17 -213 157 C-213.5 155.51 -213.5 155.51 -214 154 C-213.07 153.85 -213.07 153.85 -212.12 153.69 C-209.63 153.12 -209.63 153.12 -208 150 C-207.43 145.64 -207.51 143.7 -210.06 140.06 C-213.76 137.47 -215.57 137.29 -220 138 C-223.94 140.37 -225.84 142.55 -227 147 C-227.79 152.07 -226.26 155.08 -223.49 159.17 C-219.2 164.44 -213.24 166.64 -206.66 167.37 C-190.34 167.67 -177.73 162.38 -165.75 151.19 C-156.81 141.79 -151.89 130.26 -151.5 117.31 C-151.71 110.37 -152.63 104.55 -157.53 99.38 C-161.64 95.82 -164.44 94.64 -169.9 94.72 C-174.37 95.32 -177.1 97.96 -179.94 101.25 Z M142 99 C136 108.2 135.45 116.31 137 127 C140.35 140.79 149.65 151.9 161.25 159.75 C172.06 166.25 183.16 168.97 195.71 166.46 C201.69 164.66 205.74 162.3 208.81 156.69 C210.5 151.46 210.7 147.85 208.75 142.69 C206.91 139.87 206.19 138.91 203 138 C199.27 137.52 197.49 137.73 194.19 139.56 C191.31 142.77 190.92 144.71 191 149 C192.59 151.99 192.59 151.99 195 154 C195.99 154 196.98 154 198 154 C197 157 197 157 194.76 158.16 C186.19 160.76 177.84 158.93 170 155 C159.28 148.53 152.73 140.54 148 129 C146.47 122.77 146.07 116.86 149 111 C149.99 111 150.98 111 152 111 C152.58 111.68 153.15 112.36 153.75 113.06 C155.96 115.4 155.96 115.4 159.62 114.94 C163.26 114.32 163.26 114.32 165 111 C165.68 107.23 165.83 103.54 163.98 100.11 C161.84 97.45 160.26 96.09 157 95 C151.19 94.52 146.43 94.76 142 99 Z M-7 96 C-7.29 97.07 -7.29 97.07 -7.59 98.17 C-12.55 114.67 -21.68 126.43 -36.41 135.17 C-42.27 138.31 -48.62 140.19 -55 142 C-55.59 142.18 -56.18 142.36 -56.78 142.54 C-59.76 143.16 -62.63 143.18 -65.66 143.25 C-67.59 143.3 -67.59 143.3 -69.56 143.35 C-71.6 143.39 -73.64 143.44 -75.68 143.48 C-77.65 143.52 -79.63 143.57 -81.6 143.62 C-83.37 143.66 -83.37 143.66 -85.17 143.7 C-88.13 143.72 -88.13 143.72 -90 146 C-89.67 146.57 -89.34 147.14 -89 147.72 C-87.33 151.53 -87.9 155.06 -89 159 C-92.19 163.05 -95.39 165.66 -100.55 166.34 C-107 166.43 -110.81 165.92 -116 162 C-121.47 156.24 -122.44 150.87 -122.33 143.14 C-121.67 136.86 -118.81 131.57 -116 126 C-116.72 126.16 -117.44 126.32 -118.18 126.48 C-128.59 128.39 -138.07 126.63 -147 121 C-147.19 122.04 -147.19 122.04 -147.38 123.1 C-150.83 139.48 -159.67 153.48 -173.62 162.88 C-184.54 169.76 -196.17 171.78 -209 171 C-208.53 171.74 -208.06 172.48 -207.57 173.24 C-199.92 185.71 -196.81 197.56 -199.62 212.24 C-202.61 222.46 -209.19 230.11 -216.2 237.89 C-219.09 241.29 -221.63 244.94 -224.2 248.58 C-226 251 -226 251 -227.73 252.7 C-229.23 253.94 -229.23 253.94 -229 256 C-229.57 256.24 -230.14 256.49 -230.73 256.74 C-233.38 258.21 -235.15 259.95 -237.25 262.12 C-238.31 263.21 -238.31 263.21 -239.39 264.32 C-239.92 264.87 -240.45 265.43 -241 266 C-237.92 266.92 -235.33 267.02 -232.12 266.88 C-226.02 266.84 -222.72 268.32 -218.31 272.62 C-215.85 275.78 -214.75 279.13 -213.68 282.95 C-213.01 285.27 -213.01 285.27 -211 288 C-210.78 289.58 -210.59 291.16 -210.44 292.75 C-209.63 297.28 -208.32 299.04 -204.62 301.75 C-203.82 302.3 -203.02 302.86 -202.19 303.43 C-197.47 306.82 -195.47 311.36 -194.32 316.88 C-192.92 326.15 -194.84 334.16 -200 342.06 C-202 344 -202 344 -203.95 344.8 C-206.75 346.44 -207.42 348.28 -208.81 351.19 C-212.77 358.75 -217.4 364.14 -225.47 367.34 C-231.48 368.9 -238.11 368.99 -244 366.88 C-248.29 364.19 -250.33 361.61 -251.6 356.67 C-252.46 351.2 -251.89 347.47 -249.3 342.59 C-247.69 340.62 -246.38 339.88 -244 339 C-241.89 338.84 -241.89 338.84 -239.81 338.94 C-238.55 338.96 -237.3 338.98 -236 339 C-234.65 337.86 -234.65 337.86 -234.69 334.81 C-235.11 329.62 -236.81 327.05 -240.59 323.52 C-246.56 319.02 -252.79 319.09 -260 320 C-274.82 323.49 -288.69 337.01 -296.88 349.5 C-297.94 351.32 -298.98 353.15 -300 355 C-300.8 356.38 -300.8 356.38 -301.61 357.79 C-309.39 372.09 -313.09 389.69 -308.75 405.69 C-306.12 412.88 -301.89 417.33 -296 422 C-292.45 420.6 -292.45 420.6 -289 419 C-284.45 418.62 -281.89 418.61 -277.69 420.44 C-274.08 423.88 -272.8 427.11 -272 432 C-272.06 434.81 -272.45 437.23 -273 440 C-272.17 440.15 -271.33 440.29 -270.47 440.45 C-260.77 442.38 -253.55 445.05 -247.62 453.25 C-242.13 462.4 -240.47 472.23 -242.54 482.74 C-243.99 488 -246.19 492.34 -249 497 C-249 497.66 -249 498.32 -249 499 C-248.35 499.23 -247.7 499.46 -247.02 499.7 C-238.56 502.86 -232.8 506.52 -228.92 514.93 C-226.39 523.4 -226.74 533.66 -230.53 541.69 C-233.46 546.3 -237.17 550.14 -241 554 C-241.56 554.57 -242.12 555.15 -242.7 555.74 C-243.78 556.84 -244.89 557.92 -246 559 C-245.46 559.44 -244.91 559.87 -244.36 560.32 C-238.44 565.24 -235.27 569.11 -234.12 576.88 C-233.77 581.8 -234.42 585.75 -237 590 C-241.32 594.11 -244 595.1 -249.93 595.33 C-252.73 594.88 -254.03 594.03 -256 592 C-256.39 589.52 -256.39 589.52 -256.25 586.81 C-256.21 585.91 -256.18 585.01 -256.14 584.08 C-256.09 583.39 -256.05 582.71 -256 582 C-259.75 579.5 -261.55 579.55 -266 580 C-270.94 582.61 -274.49 585.97 -277 591 C-277.12 592.66 -277.18 594.33 -277.19 596 C-277.2 596.89 -277.22 597.77 -277.23 598.69 C-277.23 601.2 -277.23 601.2 -275 603 C-273.79 602.94 -273.79 602.94 -272.56 602.88 C-270 603 -270 603 -268.12 604.5 C-266.49 608.14 -266.78 611.3 -268 615 C-270.06 617.5 -270.06 617.5 -273 619 C-275.64 619 -278.28 619 -281 619 C-281.66 624.94 -282.32 630.88 -283 637 C-281.49 637.7 -279.99 638.4 -278.44 639.12 C-273.59 641.53 -269.94 644.31 -266 648 C-265.16 646.36 -265.16 646.36 -264.31 644.69 C-262.35 641.29 -260.74 639.48 -257 638 C-252 637.46 -249 637.91 -245 641 C-242.87 644.2 -242.68 645.29 -242.62 649 C-242.6 649.87 -242.57 650.73 -242.54 651.62 C-243 654 -243 654 -244.79 655.8 C-247.9 657.49 -250.53 657.2 -254 657 C-254.61 663.53 -254.14 668.44 -250.62 674.08 C-247.95 677.24 -244.98 678.94 -241 680 C-237.47 679.85 -236.5 679.5 -234 677 C-234.33 675.35 -234.66 673.7 -235 672 C-235.66 672 -236.32 672 -237 672 C-236.69 668.62 -236.69 668.62 -236 665 C-232.23 662.49 -230.47 662.47 -226 663 C-222.52 665.01 -220.29 667.12 -219 671 C-218.61 677.24 -218.41 683.18 -221 689 C-220.35 689.1 -219.7 689.2 -219.02 689.3 C-211.82 690.53 -206.84 692.38 -202.25 698.31 C-198.54 703.95 -197.51 709.23 -198.45 715.85 C-199.31 719.23 -200.78 721.31 -203 724 C-206.06 725.53 -208.62 725.23 -212 725 C-215.08 723.63 -216.58 722.71 -218.31 719.81 C-218.54 719.21 -218.77 718.62 -219 718 C-219.66 718 -220.32 718 -221 718 C-224.92 724.29 -223.68 733.42 -222.35 740.45 C-218.19 755.22 -210.46 766.62 -197.49 774.62 C-192.17 777.57 -186.96 777.61 -181 777 C-177.77 775.67 -177.77 775.67 -176 773 C-175.11 769.36 -175.11 769.36 -175 766 C-176.65 764.68 -178.3 763.36 -180 762 C-179.62 759.56 -179.62 759.56 -179 757 C-176.13 755.57 -174.19 755.69 -171 756 C-167.72 757.7 -165.6 759.05 -163.62 762.19 C-162.13 768.93 -162.52 774.68 -165.6 780.92 C-169.32 786.44 -174.7 789.29 -181 791 C-183.65 791.28 -186.22 791.5 -188.88 791.62 C-189.91 791.68 -189.91 791.68 -190.96 791.74 C-192.64 791.84 -194.32 791.92 -196 792 C-185.8 800.86 -172.03 804.51 -158.74 804.25 C-154.14 803.83 -151.34 802.29 -148.06 799.12 C-146.62 796.23 -147 795.06 -148 792 C-148.84 790.3 -148.84 790.3 -149.69 788.56 C-151 785 -151 785 -150.44 781.81 C-148.33 777.69 -146.42 775.47 -142 774 C-136.7 773.56 -133.04 773.73 -128.54 776.68 C-124.01 780.55 -122.84 784.76 -122.25 790.44 C-122.15 791.96 -122.06 793.48 -122 795 C-121.34 794.72 -120.67 794.45 -119.99 794.16 C-119.11 793.8 -118.22 793.44 -117.31 793.06 C-116.44 792.7 -115.57 792.34 -114.68 791.97 C-103.6 787.95 -92.07 789.68 -81.41 794.07 C-69.95 799.42 -60.96 807.22 -55.68 818.92 C-53.11 826.1 -51.93 833.45 -51 841 C-50.23 840.88 -49.45 840.76 -48.66 840.64 C-42.55 839.88 -37.93 839.49 -32.56 842.77 C-29.6 845.1 -28.26 847.18 -27.73 850.92 C-27.5 855.46 -28.21 858.28 -31 862 C-34.95 862.18 -37.6 862.09 -41 860 C-42.1 863.31 -42.05 863.78 -40.69 866.81 C-37.33 873.04 -31.58 875.7 -25.14 878.04 C-12.98 881.5 1.25 881.56 12.68 875.61 C14.89 874.17 16.95 872.66 19 871 C20.24 870.04 20.24 870.04 21.5 869.06 C23.6 866.17 23.73 863.51 24 860 C23.3 860.33 22.6 860.66 21.88 861 C18.63 862.13 16.4 862.44 13 862 C11.12 860.5 11.12 860.5 10 858 C9.47 852.46 9.73 849.63 13 845 C13 844.34 13 843.68 13 843 C19.62 840.32 24.94 839.04 32 841 C32.03 840.18 32.05 839.36 32.08 838.51 C32.74 825.42 37.07 813.95 46.48 804.52 C58.31 794.36 70.14 789.52 85.59 789.74 C90.12 790.09 93.84 791.26 98 793 C99.76 793.59 99.76 793.59 101.56 794.19 C102.37 794.46 103.17 794.72 104 795 C103.94 793.48 103.94 793.48 103.88 791.94 C104.09 785.03 105.53 780.88 110.46 776.16 C114.38 773.19 119.33 773.54 124 774 C127.66 775.59 130.12 777.44 132 781 C132.79 787.01 131.19 790.12 128 795 C130.24 799.48 132.47 801.81 137 804 C149.99 805.92 163.61 800.89 175 795 C176.84 793.45 176.84 793.45 178 792 C177.06 792 176.11 791.99 175.14 791.99 C166.01 791.72 158.68 790.45 151 785 C146.16 779.56 144.51 774.47 144.68 767.25 C145.31 762.83 147.28 759.32 150.88 756.56 C153.7 755.81 156.09 755.75 159 756 C159.99 756.66 160.98 757.32 162 758 C162 759.32 162 760.64 162 762 C161.2 762.41 160.39 762.83 159.56 763.25 C156.95 764.74 156.95 764.74 156 766.88 C156 769.99 157.16 771.53 159 774 C163.05 777.72 166.52 777.55 171.83 777.42 C180.58 776.26 187.82 770.79 193.38 764.16 C198.84 756.41 202.32 749.18 205 740 C205.2 739.35 205.4 738.7 205.61 738.04 C206.19 735.02 206.17 732.07 206.19 729 C206.2 727.78 206.22 726.57 206.23 725.31 C206.02 722.23 205.63 720.57 204 718 C203.34 718 202.68 718 202 718 C201.38 718.97 200.76 719.94 200.12 720.94 C198 724 198 724 196 725 C192.36 725.27 189.67 725.26 186.25 723.94 C182.35 720.58 181.22 716.69 180.56 711.69 C181.48 703.97 184 698.05 190.12 693.16 C194.38 690.54 197.83 689.75 202.81 689.88 C203.79 689.89 204.76 689.91 205.77 689.93 C206.87 689.96 206.87 689.96 208 690 C207.84 689.03 207.67 688.06 207.5 687.06 C206.55 680.18 205.87 673.98 210 668 C212.31 666.06 212.31 666.06 215 665 C218.31 665.31 218.31 665.31 221 666 C222 670.75 222 670.75 222 673 C221.01 673.33 220.02 673.66 219 674 C219.38 677.29 219.38 677.29 221 680 C225.34 680.51 227.45 680.35 231.19 678 C235.1 674.27 237.72 669.92 238.24 664.48 C238.25 662.31 238.18 660.17 238 658 C235.93 656.77 235.93 656.77 233.06 657.12 C230 657 230 657 228.19 655.88 C226.48 653.18 226.13 651.19 226 648 C227.38 644.48 228.82 641.16 232 639 C237.46 637.56 240.18 638.2 245 641 C245.66 641 246.32 641 247 641 C247.29 641.78 247.58 642.57 247.88 643.38 C248.85 646.1 248.85 646.1 251 648 C251.89 647.19 251.89 647.19 252.79 646.36 C253.58 645.64 254.37 644.92 255.19 644.19 C255.96 643.48 256.74 642.77 257.54 642.04 C260 640 260 640 265 637 C263.51 628.09 263.51 628.09 262 619 C259.69 619 257.38 619 255 619 C250.4 616.8 250.4 616.8 249 614 C248.54 606.77 248.54 606.77 250.12 604.12 C252.63 602.62 255.2 601.81 258 601 C258.55 594.44 257.94 589.42 254 584 C250.7 581 248.2 579.76 243.81 579.56 C240.2 579.76 240.2 579.76 237.94 581 C236.61 583.83 237.42 586.08 237.92 589.06 C238 591 238 591 236.31 593.44 C233.39 595.41 231.35 596.17 227.82 595.72 C223.33 594.41 220.61 593.16 218 589.19 C214.88 583.26 214.64 578.6 216.28 572.17 C218.43 565.68 222.51 562.59 228 559 C227.34 558.34 226.68 557.68 226 557 C225.55 556.54 225.09 556.08 224.62 555.61 C223.46 554.45 222.27 553.32 221.06 552.2 C214.32 545.82 209.43 539.1 208.76 529.64 C208.59 520.88 208.8 513.93 214.7 507.01 C219.51 502.31 224.49 500.4 231 499 C230.59 498.17 230.18 497.33 229.76 496.47 C224.11 484.68 220.72 474.41 224.96 461.59 C228.65 452.39 233.6 446.2 242.5 441.75 C245.97 440.71 249.47 439.84 253 439 C252.95 438.37 252.91 437.74 252.86 437.09 C252.59 430.81 253.24 426.16 257 421 C260.62 417.69 264.14 417.56 268.86 417.69 C271.71 418.1 273.6 419.47 276 421 C278.57 421.24 278.57 421.24 281 420 C288.92 412.27 290.95 401.11 291.38 390.38 C291.08 374.03 284.45 359.02 275 346 C274.32 345.06 273.64 344.12 272.94 343.14 C264.45 332.09 253.75 323.38 240 320 C233.74 319.18 228.29 319.22 223 323 C219.44 326.64 217.03 329.41 216.94 334.62 C216.96 335.74 216.98 336.85 217 338 C219.2 339.3 219.2 339.3 222.81 338.88 C226.69 338.83 228.93 339.47 232 342 C234.91 346.69 234.72 351.66 234 357 C232.36 361.31 230.08 364.14 226.5 367 C219.73 368.93 212.06 369.39 205.56 366.31 C198.43 362.29 194.69 357.34 191.08 350.17 C189.37 346.96 187.72 344.56 184.89 342.32 C179.32 337.86 177.9 331.97 177.06 325.06 C176.66 317.02 178.17 310.8 183.38 304.56 C185.54 302.25 187.01 301 189.88 299.56 C192.17 298.24 192.17 298.24 192.39 296.11 C192.51 294.54 192.61 292.97 192.7 291.39 C193.11 288.16 194.39 285.86 195.97 283.05 C197.09 280.82 197.71 278.65 198.38 276.25 C199.48 272.75 199.97 272.02 202.94 269.5 C207.89 267.07 211.72 266.89 217.25 266.94 C219.14 266.95 219.14 266.95 221.08 266.96 C222.04 266.98 223.01 266.99 224 267 C220.61 262.71 217.05 258.86 213 255.18 C207.75 250.24 203.85 245.11 200.18 238.96 C197.85 235.09 195.24 232.13 192 229 C184.08 218.83 180.84 207.87 182 195 C183.74 186.61 186.76 179.76 192 173 C191.67 172.34 191.34 171.68 191 171 C190.36 171.05 189.71 171.09 189.05 171.14 C174.83 171.71 161.32 166.27 150.81 156.81 C140.04 146.7 134.35 135.54 132 121 C131.25 121.35 130.5 121.7 129.73 122.06 C128.75 122.51 127.76 122.97 126.75 123.44 C125.78 123.89 124.8 124.34 123.8 124.81 C116.54 127.9 109.64 127.07 102 126 C102.35 126.68 102.7 127.35 103.06 128.05 C103.51 128.94 103.97 129.83 104.44 130.75 C104.89 131.63 105.34 132.51 105.81 133.42 C108.59 139.45 109.06 146.01 107.35 152.44 C105.16 157.98 102 161.75 97 165 C91.58 166.81 86.07 166.61 80.62 165 C77.02 162.25 75.26 159.34 74 155 C74.18 151.3 74.84 148.49 76 145 C73.43 143.72 71.55 143.86 68.68 143.82 C46.24 143.4 25.95 140.69 9.15 124.41 C1.81 116.17 -2.47 106.67 -5 96 C-5.66 96 -6.32 96 -7 96 Z M57 97 C56.01 98.65 55.02 100.3 54 102 C60.23 108.38 67.66 111.7 76.66 112.12 C81.07 111.77 84.48 110.8 88 108 C89.78 105.93 89.78 105.93 91 104 C89.89 104.33 88.77 104.66 87.62 105 C78.67 107.18 71.16 106.39 63 102 C60.8 100.45 58.96 98.86 57 97 Z M-75.12 100.88 C-82.38 105.78 -89.32 106.73 -98 106 C-100.44 105.5 -102.64 104.82 -105 104 C-101.8 108.94 -98.54 110.63 -93 112 C-85.72 113 -77.02 110.55 -70.83 106.62 C-69.03 105.17 -69.03 105.17 -67 103 C-67.66 101.35 -68.32 99.7 -69 98 C-71.78 98 -72.89 99.25 -75.12 100.88 Z M-2 98 C-1.54 108.71 6.32 116.11 13.74 123.13 C28.97 136.9 46.86 140.35 66.81 139.88 C71.54 139.8 75.46 140.78 79.91 142.34 C82.11 143.15 82.11 143.15 85 143 C85.55 139.87 85.45 137.75 83.79 135 C75.9 125.25 65.52 123.15 53.78 120.8 C50 120 50 120 48 119 C48 118.34 48 117.68 48 117 C61.06 117.84 76.57 120.4 85.69 130.69 C88.45 134.23 89.13 137.23 89.06 141.69 C89.05 142.5 89.04 143.3 89.04 144.14 C89.02 144.75 89.01 145.37 89 146 C85.52 147.95 83.87 148.08 80 147 C77.65 150.52 77.42 151.86 78 156 C80.17 158.57 81.98 160.49 85 162 C90.57 162.37 94.24 162.25 99 159 C103.72 153 104.84 147.49 104 140 C101.51 131.15 95.84 124.43 88.06 119.69 C82.88 117.03 77.7 116.06 72.01 115.18 C64.74 113.99 57.29 111.29 52 106 C49.06 106.63 46.65 107.59 44 109 C36.33 113.08 27.37 113.2 18.95 111.32 C11.02 108.61 3.6 104.33 -2 98 Z M-15 103 C-15.58 103.47 -16.17 103.94 -16.77 104.43 C-26.22 111.6 -35.14 113.86 -46.94 112.59 C-52.63 111.5 -57.22 109.19 -62 106 C-64.8 106.19 -65.95 106.95 -68.06 108.81 C-73.96 113.2 -80.87 114.94 -88.06 116 C-98.58 117.56 -106.23 121.08 -112.62 129.69 C-116.51 135.47 -119.46 141.06 -118.94 148.19 C-117.66 153.37 -115.39 156.4 -111.94 160.38 C-107.4 162.88 -103.06 162.88 -98 162 C-94.71 159.7 -93.45 158.14 -92 154.44 C-91.84 151.95 -91.84 151.95 -93 149.69 C-95.92 147.22 -98.31 147.72 -102 148 C-103.56 144.88 -103.28 142.45 -103 139 C-99.47 130.76 -93.4 125.73 -85.19 122.31 C-76.69 119.29 -67.84 117.67 -59 116 C-59.33 116.99 -59.66 117.98 -60 119 C-60.67 119.18 -61.34 119.35 -62.03 119.53 C-82.32 123.95 -82.32 123.95 -97.75 136.69 C-99.03 140.09 -99.05 140.75 -98 144 C-97.43 143.8 -96.86 143.59 -96.28 143.38 C-95.51 143.11 -94.73 142.84 -93.94 142.56 C-93.18 142.3 -92.43 142.03 -91.65 141.75 C-85.89 140.11 -80.12 139.88 -74.17 139.71 C-57.2 139.21 -43.91 135.95 -30 126 C-29.13 125.4 -28.27 124.8 -27.38 124.19 C-21.85 119.1 -17.25 112.76 -14 106 C-14.5 104.51 -14.5 104.51 -15 103 Z M-218 169 C-216.95 171.65 -215.88 174.28 -214.78 176.91 C-208.55 192.24 -208.17 206.7 -210 223 C-203.87 216.66 -202.81 209.09 -202.56 200.56 C-202.83 189.3 -206.71 180.56 -214 172 C-216.11 170.26 -216.11 170.26 -218 169 Z M199 171 C190.32 179.73 185.95 189.31 185.69 201.62 C185.73 208.72 186.67 216.34 191.64 221.8 C192.09 222.2 192.54 222.59 193 223 C192.93 222.44 192.86 221.88 192.78 221.3 C190.92 205.22 191.51 189.69 199.11 175.07 C199.4 174.39 199.7 173.71 200 173 C199.67 172.34 199.34 171.68 199 171 Z M-251 164 C-252.19 167.56 -252.26 170.26 -252 174 C-250.64 176.4 -250.64 176.4 -249 178 C-245.18 177.47 -242.94 176.5 -240 174 C-236.83 174.58 -234.64 175.08 -232.75 177.81 C-227.93 187.49 -228.02 196.52 -230.9 206.89 C-235.28 219.29 -243.29 230.2 -253 239 C-253.99 239 -254.98 239 -256 239 C-256.09 238.27 -256.17 237.55 -256.26 236.8 C-258.18 223.04 -262.87 212.55 -273.74 203.56 C-280.39 198.89 -288.48 197.04 -296.5 198.43 C-302.97 200.37 -307.87 203.68 -311.38 209.56 C-313.95 215.23 -314.24 222.17 -312.32 228.1 C-311.47 229.9 -311.47 229.9 -310 232 C-308.22 229.81 -307.02 228.05 -306.06 225.38 C-305 223 -305 223 -303.31 221.81 C-302.55 221.54 -301.79 221.28 -301 221 C-299.95 220.61 -298.9 220.22 -297.81 219.81 C-292.02 218.58 -287.29 219.16 -281.75 221.19 C-276.81 224.44 -273.38 228.7 -271.51 234.36 C-266.56 259.9 -281.97 282.6 -295.56 302.81 C-296.58 304.33 -297.59 305.85 -298.6 307.37 C-300.07 309.58 -301.54 311.79 -303.01 314 C-323.26 344.37 -340.09 377.6 -346 414 C-346.13 414.79 -346.26 415.58 -346.39 416.39 C-346.72 418.93 -346.88 421.44 -347 424 C-347.03 424.66 -347.07 425.31 -347.1 425.99 C-348.12 449.43 -342.37 473.3 -326.56 491.31 C-325.06 492.89 -323.54 494.46 -322 496 C-321.39 496.64 -320.77 497.27 -320.14 497.93 C-310 507.68 -297.77 511.69 -284 512 C-272.56 511.4 -263.5 506.28 -255.27 498.54 C-247.93 490.32 -245.61 482.14 -245.73 471.39 C-246.44 462.53 -250.61 455.99 -257 450 C-262.3 445.74 -267.21 444.32 -274 445 C-279.68 446.73 -282.74 449.02 -286 454 C-287.19 458.15 -287.27 460.24 -285.81 464.31 C-284 467 -283.01 467.96 -280 469 C-279.34 468.5 -278.68 468.01 -278 467.5 C-274.19 465.6 -271.18 465.22 -267 466 C-263.56 468.12 -262.28 469.15 -261 473 C-260.37 478.34 -260.57 482.95 -263.63 487.49 C-267.1 491.31 -270.87 492.7 -275.92 493.41 C-288.56 494 -299.24 489.73 -308.61 481.36 C-324.83 465.33 -331.05 443.42 -331.19 421.1 C-331.16 385.66 -322.37 354.35 -298 328 C-297.1 327.15 -297.1 327.15 -296.18 326.27 C-294.77 325.05 -294.77 325.05 -295 323 C-294.44 322.75 -293.87 322.51 -293.29 322.25 C-290.61 320.79 -288.62 319.01 -286.38 316.94 C-282.19 313.1 -282.19 313.1 -280 312 C-280 311.34 -280 310.68 -280 310 C-279.29 309.74 -278.57 309.48 -277.84 309.21 C-274.87 307.95 -272.34 306.41 -269.62 304.69 C-258.71 298.27 -247.67 295.24 -235 295 C-235.18 292.06 -235.18 292.06 -236 289 C-240.3 285.72 -245.9 286.33 -251 287 C-262.22 290.13 -270.89 295.96 -280 303 C-281.62 304.21 -283.25 305.42 -284.88 306.62 C-286.42 307.8 -286.42 307.8 -288 309 C-288.33 308.01 -288.66 307.02 -289 306 C-276.68 293.99 -261.75 282.92 -243.88 282.56 C-240.11 282.64 -237.1 282.74 -234 285 C-232.73 287.38 -232.73 287.38 -231.75 290.12 C-231.41 291.04 -231.08 291.95 -230.73 292.88 C-230.49 293.58 -230.25 294.28 -230 295 C-225.58 293.36 -222.99 291.74 -220 288 C-218.75 283.79 -218.86 281.48 -220.06 277.25 C-222.43 273.28 -223.59 272.34 -228 271 C-237.7 269.56 -247.9 272.6 -256 278 C-258.19 277.62 -258.19 277.62 -260 277 C-258 275.14 -256 273.29 -254 271.44 C-253.1 270.6 -253.1 270.6 -252.18 269.76 C-249.17 266.97 -246.13 264.22 -243 261.56 C-228.1 248.56 -215.49 234.56 -213 214 C-212.84 211.08 -212.81 208.17 -212.81 205.25 C-212.81 204.06 -212.81 204.06 -212.81 202.85 C-212.86 197.06 -213.42 191.6 -215 186 C-215.33 186 -215.66 186 -216 186 C-216.01 186.8 -216.03 187.6 -216.04 188.43 C-217.12 214.13 -228.61 235.53 -246 254 C-246.51 254.56 -247.02 255.12 -247.54 255.7 C-249.85 258.18 -251.57 259.62 -255 260 C-255 258.68 -255 257.36 -255 256 C-254.44 255.77 -253.88 255.55 -253.3 255.31 C-237.87 246.51 -227.93 223.94 -222.69 207.75 C-219.47 194.95 -218.56 177.76 -225.14 165.96 C-227.52 162.31 -229.84 159.57 -234 158 C-241.38 156.77 -246.26 158.05 -251 164 Z M209.17 164.98 C201.98 177.4 202.26 193.23 205.62 206.81 C211.58 226.14 221.09 241.9 235.82 255.71 C237 257 237 257 237 259 C227.09 255.75 220.33 245.5 215 237 C214.01 235.46 214.01 235.46 213 233.89 C204.02 219.15 200.17 204.13 199 187 C193.27 196.55 195.06 211.81 197.62 222.31 C203.76 245.09 223.68 262.42 242 276 C241.5 277.49 241.5 277.49 241 279 C239.98 278.51 238.95 278.01 237.89 277.5 C236.53 276.86 235.17 276.21 233.81 275.56 C233.14 275.24 232.47 274.91 231.77 274.58 C224.3 271.04 217.27 270.19 209 271 C205.32 272.71 203.68 273.9 201.56 277.31 C200.66 281.64 200.8 285.12 203.23 288.93 C206.08 292.46 208.5 294.81 213 296 C213.11 295.39 213.22 294.77 213.33 294.14 C213.49 293.33 213.65 292.52 213.81 291.69 C213.96 290.89 214.11 290.09 214.27 289.26 C215.1 286.68 215.86 285.64 218 284 C224.43 281.3 230.54 281.77 237 284 C249.55 289.15 260.51 296.24 270 306 C269.67 306.99 269.34 307.98 269 309 C268.43 308.53 267.86 308.05 267.27 307.57 C253.21 296 253.21 296 237 288 C236.32 287.77 235.65 287.53 234.95 287.29 C229.9 285.78 226.06 285.88 221 287 C218.91 288.09 218.91 288.09 218 290 C217.96 291.67 217.96 293.33 218 295 C218.83 294.99 219.65 294.98 220.5 294.97 C243.12 295.55 262.4 310.73 277.6 326.36 C289.66 339.64 297.99 355.19 304 372 C304.38 373.02 304.76 374.04 305.15 375.09 C314.58 402.63 314.75 437.5 302 464 C299.64 467.98 297.02 471.5 294 475 C293.31 475.81 292.62 476.62 291.91 477.46 C284.12 485.94 273.31 491.73 261.69 492.38 C256.32 492.23 251.63 490.69 247 488 C243.35 483.99 242 480.42 242 475 C244.56 467.72 244.56 467.72 248 466 C253.38 465.54 257.96 465.93 263 468 C265.69 465.91 267.74 464.28 268.44 460.84 C268.56 456.17 268.31 452.51 265 449 C259.39 445.09 254.28 443.07 247.45 444.24 C240.11 446.52 235.15 451.08 231.22 457.57 C226.67 466.62 225.94 474.66 228.5 484.38 C231.88 494.55 237.95 501.22 247.14 506.59 C258.69 512.28 269.8 512.35 281.87 508.25 C291.02 504.59 298.01 498.86 305 492 C305.55 491.46 306.11 490.92 306.68 490.36 C322.59 473.33 328 448.72 327.35 426.1 C326.89 417.54 325.09 409.29 323 401 C322.79 400.15 322.57 399.3 322.35 398.42 C314.19 366.72 300.37 338.07 282.05 311.03 C249.19 262.52 249.19 262.52 253.43 236.37 C255.48 229.13 259.98 223.76 266.44 220 C273.31 218.07 278.07 218.37 284.24 221.79 C288.01 224.38 290.17 227.89 292 232 C295.8 226.3 295.58 220.66 295 214 C293.23 207.21 288.78 203.61 283 200 C278.27 197.63 272.12 198.45 267 199 C255.67 202.97 248.18 211.45 243 222 C240.87 227.55 239.64 233.11 239 239 C234.69 238.52 232.84 236.11 230 233 C229.47 232.48 228.95 231.96 228.41 231.42 C224.35 227.19 221.46 222.62 218.69 217.5 C218.35 216.88 218.01 216.27 217.66 215.63 C213.93 208.47 212.61 201.54 212.62 193.5 C212.63 192.76 212.63 192.01 212.63 191.25 C212.75 185.55 213.63 181.72 217 177 C220.19 174.87 222.27 174.5 226 174 C226.66 175.32 227.32 176.64 228 178 C231.93 177.43 231.93 177.43 235 175 C236.21 169.52 236.21 169.52 234.88 164.25 C231.2 159.71 231.2 159.71 225.89 157.65 C218.94 157.39 213.5 159.22 209.17 164.98 Z M-211 223 C-210 225 -210 225 -210 225 Z M-216 289 C-216.4 289.47 -216.8 289.94 -217.21 290.43 C-217.74 291.05 -218.27 291.67 -218.81 292.31 C-219.6 293.23 -219.6 293.23 -220.39 294.18 C-221.87 295.85 -223.4 297.44 -225 299 C-224.04 299.67 -224.04 299.67 -223.06 300.36 C-214.28 306.89 -208.51 314.22 -206 325 C-205.72 327.64 -205.52 330.29 -205.38 332.94 C-205.34 333.62 -205.3 334.31 -205.26 335.01 C-205.16 336.67 -205.08 338.34 -205 340 C-199.62 334.8 -197.96 331.2 -197.56 323.75 C-197.7 317.01 -199.95 311.33 -204.53 306.34 C-207.13 304.07 -209.91 302.49 -213 301 C-213.05 300.3 -213.1 299.6 -213.15 298.88 C-213.22 297.97 -213.3 297.06 -213.38 296.12 C-213.44 295.22 -213.51 294.32 -213.59 293.38 C-213.8 290.82 -213.8 290.82 -216 289 Z M197 289 C196.94 289.61 196.88 290.23 196.82 290.86 C196.73 291.67 196.65 292.48 196.56 293.31 C196.48 294.11 196.4 294.91 196.32 295.74 C196 298 196 298 195 301 C193.07 302.36 193.07 302.36 190.69 303.75 C185.63 306.98 183.16 310.1 181.42 315.95 C180.02 322.78 180.8 329.77 184 336 C184.99 336.66 185.98 337.32 187 338 C187.1 337.03 187.2 336.07 187.3 335.07 C188.47 324.83 189.99 316.01 197 308 C197 307.34 197 306.68 197 306 C197.77 305.66 197.77 305.66 198.56 305.31 C201.92 303.5 204.93 301.26 208 299 C206.92 298.2 206.92 298.2 205.81 297.38 C203.63 295.53 202.02 293.93 200.25 291.75 C199.51 290.84 198.76 289.94 198 289 C197.67 289 197.34 289 197 289 Z M-302.57 338.92 C-317.45 358.58 -329.6 387.36 -326.6 412.31 C-324.3 422.94 -318.74 430.62 -310 437 C-306.56 439.2 -303.79 439.21 -299.75 439.12 C-298.67 439.11 -297.59 439.09 -296.48 439.07 C-295.66 439.05 -294.84 439.02 -294 439 C-294.33 439.99 -294.66 440.98 -295 442 C-302.76 443.35 -308.52 443.06 -315.17 438.52 C-319.89 434.65 -323.11 430.35 -326 425 C-326.33 425 -326.66 425 -327 425 C-326.47 440.84 -322.05 454.04 -315 468 C-314.67 468 -314.34 468 -314 468 C-313.87 467.11 -313.87 467.11 -313.74 466.21 C-313.35 463.54 -312.96 460.86 -312.56 458.19 C-312.43 457.26 -312.29 456.33 -312.15 455.37 C-312.02 454.48 -311.89 453.59 -311.75 452.67 C-311.63 451.85 -311.51 451.02 -311.39 450.18 C-311 448 -311 448 -310 445 C-309.3 445.22 -308.6 445.43 -307.88 445.66 C-299.7 448.05 -293.77 449.52 -285.75 445.81 C-281.92 443.71 -279.14 441.92 -277 438 C-275.88 433.88 -275.74 431.72 -277.19 427.69 C-279.07 424.9 -279.81 423.91 -283 423 C-286.04 422.58 -286.04 422.58 -289 423 C-289.45 423.52 -289.91 424.03 -290.38 424.56 C-292 426 -292 426 -295.88 425.94 C-300.9 425.04 -303.48 423.06 -306.53 418.93 C-314.54 406.7 -315.69 392.21 -313.38 378 C-309.47 361.87 -302.28 347.89 -290.69 335.93 C-288.78 334.18 -288.78 334.18 -289 332 C-288.14 331.61 -288.14 331.61 -287.26 331.21 C-284.85 329.92 -282.97 328.43 -280.88 326.69 C-271.19 319.04 -260.46 314.63 -248 316 C-241.21 317.7 -236.84 320.13 -233 326 C-230.68 330.2 -230.51 334.3 -231 339 C-232 342 -232 342 -233 344 C-233.68 343.88 -234.35 343.76 -235.05 343.64 C-240.62 342.64 -240.62 342.64 -245.56 344.81 C-247.97 348.48 -248.42 350.57 -248 355 C-246.7 358.24 -245.21 361.2 -242.22 363.18 C-237.08 365.09 -230.83 365.02 -225.68 363.16 C-218.39 358.92 -212.75 352.51 -210.5 344.35 C-208.21 333.52 -209.11 324.25 -214.39 314.39 C-218.98 307.56 -225.95 302.01 -234 300 C-261.02 296.66 -286.67 319.43 -302.57 338.92 Z M203 307 C194.23 316.19 191.61 324.93 191.72 337.43 C192.37 345.81 196.3 352.9 202 359 C207.41 363.52 212.39 364.34 219.27 364.29 C223.05 363.89 225.2 362.52 228 360 C230.82 355.77 230.66 351.97 230 347 C228.07 344.07 226.82 343.29 223.56 342.12 C220.55 341.98 218.69 342.69 216 344 C213.14 341.14 213.28 338.6 212.98 334.66 C213.02 329.71 214.27 326.01 217.52 322.24 C223.53 316.63 230.07 315.5 238.11 315.7 C254.02 317.37 266.97 329.38 277 341 C285.47 351.95 291.42 365.44 294 379 C294.23 380.15 294.45 381.31 294.69 382.5 C295.94 396.57 294.21 409.75 285.69 421.38 C282.48 424.51 280.46 425.52 276 426 C274.31 424.7 272.64 423.36 271 422 C268.2 421.34 265.8 421.36 263 422 C260.06 424 258.48 425.51 257.37 428.94 C256.77 432.25 256.85 434.63 258.12 437.75 C261.84 442.2 266.03 445.73 271.91 446.27 C272.95 446.26 273.99 446.26 275.06 446.25 C276.11 446.26 277.15 446.26 278.22 446.27 C281.21 446.2 281.21 446.2 284 444 C281.36 443.01 278.72 442.02 276 441 C276 440.34 276 439.68 276 439 C276.7 439.06 277.4 439.12 278.12 439.18 C286.33 439.57 290.6 437.92 296.65 432.53 C304.46 424.44 306.76 414.52 306.58 403.62 C305.58 381.93 297.1 358.32 284 341 C283.34 340.12 282.67 339.24 281.99 338.33 C268.42 321.09 249.8 303.82 227.56 299.38 C218.05 298.32 210.52 301.15 203 307 Z M306 427 C304.89 428.4 303.81 429.82 302.75 431.25 C300.1 434.71 297.59 437.48 294 440 C293.24 440.58 292.47 441.15 291.69 441.75 C290.85 442.37 290.85 442.37 290 443 C290.47 443.98 290.94 444.96 291.43 445.97 C293.18 450.08 293.75 454.02 294.19 458.44 C294.31 459.53 294.31 459.53 294.44 460.65 C294.63 462.44 294.82 464.22 295 466 C298.76 461.88 300.44 457.89 302.12 452.69 C302.51 451.52 302.51 451.52 302.91 450.32 C305.32 442.65 306.37 435 307 427 C306.67 427 306.34 427 306 427 Z M283.44 449 C279.18 450.09 275.38 450.16 271 450 C271.16 450.66 271.33 451.32 271.5 452 C272.58 458.47 272.81 463.47 269 469 C267.23 470.38 265.45 471.58 263.52 472.73 C261.55 474.38 261.27 475.47 261 478 C262.18 481.1 263.16 483.31 265.75 485.44 C270.44 486.61 273.56 485.74 277.76 483.58 C283.13 480.34 287.09 477.72 290 472 C290.5 468.98 290.47 466.06 290.38 463 C290.37 461.83 290.37 461.83 290.37 460.63 C290.3 456.06 289.72 452.3 288 448 C286.54 447.95 286.54 447.95 283.44 449 Z M-308 450 C-308.97 454.87 -309.18 459.14 -309.19 464.06 C-309.2 464.86 -309.21 465.67 -309.22 466.49 C-309.36 472.1 -309.36 472.1 -307 477 C-304.52 479.14 -304.52 479.14 -301.62 481.12 C-300.67 481.81 -299.71 482.49 -298.73 483.2 C-293.87 486.41 -290.96 487.53 -285 487 C-282.48 486.24 -282.48 486.24 -281 484 C-280.37 481.01 -280.13 478.05 -280 475 C-280.55 474.61 -281.11 474.23 -281.68 473.83 C-282.4 473.31 -283.13 472.79 -283.88 472.25 C-284.95 471.48 -284.95 471.48 -286.05 470.7 C-288.2 468.82 -289.09 467.7 -290 465 C-290.26 460.65 -290.09 456.36 -290 452 C-295.94 451.34 -301.88 450.68 -308 450 Z M-275 470 C-275.72 472.96 -275.98 475.31 -275.81 478.38 C-276.05 483.02 -277.48 485.15 -280 489 C-275.07 488.88 -271.92 488.75 -268 485.56 C-264.84 481.51 -264.64 479.15 -265 474 C-265.88 471.46 -265.88 471.46 -268 470 C-271.63 469.67 -271.63 469.67 -275 470 Z M249.69 469.75 C247.86 470.91 247.86 470.91 247 473 C246.33 478.92 246.33 478.92 249.25 483.88 C253.79 487.38 256.19 488.26 262 488 C261.36 487.11 260.72 486.23 260.06 485.31 C256.84 480.14 256.76 476.91 258 471 C253.93 469.21 253.93 469.21 249.69 469.75 Z M324 471 C323.02 472.6 322.04 474.21 321.06 475.81 C320.52 476.71 319.97 477.6 319.41 478.52 C311.99 491.58 315.56 511.99 319 526 C322.08 536.34 328.09 544.82 337 551 C343.88 554.51 351.75 555.36 359.12 553 C360.05 552.5 360.05 552.5 361 552 C358.79 549.62 356.52 548 353.75 546.31 C338.24 536.06 331.94 517.05 328.32 499.61 C326.5 490.16 325.73 480.59 325 471 C324.67 471 324.34 471 324 471 Z M-344 472 C-344.91 475.34 -345.26 478.59 -345.54 482.04 C-347.36 503.2 -351.83 528.63 -368.58 543.39 C-371.93 546.11 -375.41 548.6 -379 551 C-378.67 551.66 -378.34 552.32 -378 553 C-371.55 555.15 -364.99 554.85 -358.81 552 C-348.06 545.88 -341.65 536.25 -337.9 524.57 C-334.33 509.33 -333.72 491.29 -340.62 476.94 C-341.07 476 -341.52 475.06 -341.98 474.09 C-342.31 473.4 -342.65 472.71 -343 472 C-343.33 472 -343.66 472 -344 472 Z M305.94 495.88 C301.9 499.96 300.36 502.64 300.1 508.38 C300.21 517.65 302.1 526.22 305 535 C303.14 534.36 303.14 534.36 301 533 C296.91 524.53 296.28 515.25 296 506 C294.01 506.87 292.03 507.77 290.06 508.69 C288.96 509.19 287.86 509.69 286.72 510.2 C283.84 511.73 283.84 511.73 283.06 514.38 C282.76 526.99 290.33 541.28 298.5 550.56 C299.98 552.07 301.47 553.55 303 555 C303.66 555.65 304.32 556.31 305 556.98 C314.33 565.77 325.2 569.48 337.91 569.25 C343.5 568.8 346.66 567.17 350.94 563.44 C353.22 561.28 353.22 561.28 353 559 C352.09 558.84 351.19 558.68 350.25 558.52 C339.15 556.39 330.07 553.22 323 544 C314.84 530.99 311.78 515.76 311.94 500.56 C311.94 499.74 311.95 498.91 311.95 498.06 C311.96 496.04 311.98 494.02 312 492 C309.7 492 307.56 494.52 305.94 495.88 Z M-331 494 C-331.04 495.04 -331.07 496.08 -331.11 497.16 C-331.84 514.16 -333.43 531.79 -344.77 545.38 C-346.21 547.1 -346.21 547.1 -347 550 C-348.78 551.03 -348.78 551.03 -351 552 C-351.72 552.4 -352.45 552.8 -353.19 553.22 C-359.36 556.55 -365.06 558.12 -372 559 C-369.78 563.44 -367.27 565.51 -363 568 C-353.78 571.07 -343.58 569.08 -335 565 C-331.7 562.95 -328.86 560.62 -326 558 C-325.24 557.32 -324.48 556.64 -323.69 555.93 C-313.79 546.6 -304.51 532.79 -303.9 518.76 C-303.91 518.08 -303.93 517.39 -303.94 516.69 C-303.96 515.47 -303.98 514.25 -304 513 C-307.96 511.02 -311.92 509.04 -316 507 C-316.04 508.43 -316.04 508.43 -316.08 509.89 C-316.41 517.51 -317.17 523.8 -320.16 530.93 C-321.13 532.94 -321.13 532.94 -321 535 C-322.32 535 -323.64 535 -325 535 C-324.72 534.27 -324.45 533.55 -324.16 532.8 C-320.83 523.57 -318.46 513.86 -320.99 504.11 C-322.99 499.93 -326.43 496.88 -330 494 C-330.33 494 -330.66 494 -331 494 Z M-253 503 C-252.28 503.56 -251.56 504.11 -250.81 504.69 C-244.46 509.91 -240.35 514.43 -239.12 522.75 C-238.53 530.82 -241.16 537.66 -246 544 C-246.99 544 -247.98 544 -249 544 C-247.94 541.22 -246.79 538.59 -245.44 535.94 C-242.77 530.48 -241.75 524.74 -243.72 518.84 C-245.71 514.53 -247.78 511.4 -252 509 C-254.73 508.14 -257.14 507.75 -260 508 C-264.27 510.21 -264.27 510.21 -267 514 C-267.45 518.26 -267.45 518.26 -265.5 521.88 C-265 522.25 -264.51 522.62 -264 523 C-262.35 522.67 -260.7 522.34 -259 522 C-259 521.34 -259 520.68 -259 520 C-257.35 520.33 -255.7 520.66 -254 521 C-251.1 526.63 -251.16 531.93 -252.8 537.93 C-255.65 545.65 -259.81 550.66 -266 556 C-260.93 557.69 -256.17 557.19 -251 556 C-241.64 551.25 -235.49 543.81 -232 534 C-230.41 526.9 -230.87 520.6 -234 514 C-237.95 507.86 -241.97 504.84 -249 503 C-250.32 503 -251.64 503 -253 503 Z M217.69 509.31 C212.91 516.91 212.06 523.02 213 532 C215.21 541.36 220.79 548.08 228.62 553.44 C234.47 556.77 240.39 556.98 247 557 C246.42 556.33 246.42 556.33 245.83 555.64 C244.74 554.39 243.66 553.12 242.59 551.86 C241.37 550.43 240.13 549.02 238.88 547.62 C234.59 541.62 232.24 535.37 232 528 C232.86 524.44 233.42 522.58 236 520 C236.99 520 237.98 520 239 520 C239.66 520.99 240.32 521.98 241 523 C243.47 522.66 243.47 522.66 246 522 C247.55 518.91 247.29 516.41 247 513 C245.13 510.64 243.68 509.34 241 508 C237.21 507.57 235.29 507.85 231.88 509.62 C227.24 513.45 224.93 516.86 224.06 522.81 C223.55 530.9 226.85 537.27 231 544 C228.62 543.62 227.31 543.31 225.59 541.57 C221.41 535.07 219.27 527.95 220.41 520.18 C221.93 514.59 223.83 509.84 229.04 506.82 C231 505.81 232.98 504.88 235 504 C235 503.67 235 503.34 235 503 C227.94 502.41 222.75 504.25 217.69 509.31 Z M252 514 C251.87 514.61 251.73 515.23 251.6 515.86 C251.42 516.67 251.24 517.48 251.06 518.31 C250.89 519.11 250.71 519.91 250.54 520.74 C250 523 250 523 249 526 C240.43 527.43 240.43 527.43 237 525 C235.24 528.52 236.24 532.25 237 536 C240.62 546.59 249.37 553.47 258 560 C259.04 557.94 260.06 555.87 261.04 553.77 C263.24 549.17 265.61 545 268.62 540.88 C274.8 532.2 275.44 525.64 275 515 C274.18 515.01 273.36 515.02 272.51 515.04 C265.6 515.09 258.86 514.87 252 514 Z M-277.94 515 C-283.67 516.08 -289.18 516.2 -295 516 C-295.83 529.48 -291.72 537.53 -284.02 548.12 C-280.96 552.49 -279.72 555.7 -279 561 C-276.29 559.05 -273.64 557.04 -271 555 C-270.23 554.41 -269.47 553.82 -268.68 553.21 C-262.25 547.92 -256.7 541.62 -255.64 533.07 C-255.63 530.68 -255.72 528.38 -256 526 C-256.59 526.13 -257.18 526.26 -257.79 526.39 C-264.2 527.51 -264.2 527.51 -268 525.06 C-270.55 521.15 -270.76 518.62 -271 514 C-273.42 514 -275.56 514.51 -277.94 515 Z M279 528 C278.72 528.96 278.72 528.96 278.44 529.95 C276.07 537.35 272.59 542.88 268.02 549.05 C264.82 553.72 263.38 557.78 263.48 563.41 C264.37 567.84 266.85 571.33 269.24 575.11 C271.4 578.65 272.72 582.08 274 586 C275.08 584.89 275.08 584.89 276.19 583.75 C279 581 279 581 281.5 579.31 C286.68 574.53 289.68 567.3 290.2 560.3 C290.4 547.8 285.63 538.83 280 528 C279.67 528 279.34 528 279 528 Z M-301 529 C-302.32 532.08 -303.63 535.17 -304.94 538.25 C-305.31 539.12 -305.68 540 -306.07 540.89 C-306.6 542.16 -306.6 542.16 -307.15 543.45 C-307.48 544.23 -307.81 545 -308.15 545.8 C-311.47 554.41 -310.55 563.57 -307 572 C-304.94 574.97 -302.54 577.44 -300 580 C-298.84 581.32 -297.7 582.66 -296.56 584 C-295.72 584.99 -294.87 585.98 -294 587 C-292.85 584.71 -291.72 582.42 -290.6 580.12 C-290.09 579.09 -289.58 578.06 -289.06 577 C-288.56 575.97 -288.05 574.94 -287.54 573.88 C-286 571 -286 571 -284.34 568.85 C-282.56 566.4 -282.46 564.24 -282.59 561.26 C-283.82 554.43 -288.02 548.86 -292.12 543.44 C-295.67 538.74 -297.51 534.68 -299 529 C-299.66 529 -300.32 529 -301 529 Z M-315 552 C-316.07 553.19 -317.1 554.4 -318.12 555.62 C-321.47 559.52 -325.07 562.71 -329 566 C-329 566.33 -329 566.66 -329 567 C-320.58 568.98 -320.58 568.98 -312 571 C-312.33 569.35 -312.66 567.7 -313 566 C-313.22 563.56 -313.4 561.13 -313.56 558.69 C-313.69 556.81 -313.69 556.81 -313.82 554.89 C-313.88 553.93 -313.94 552.98 -314 552 C-314.33 552 -314.66 552 -315 552 Z M294 553 C293.94 553.88 293.88 554.76 293.82 555.67 C293.73 556.83 293.65 557.99 293.56 559.19 C293.48 560.34 293.4 561.48 293.32 562.67 C293.05 565.52 292.62 568.21 292 571 C294.73 570.52 297.25 569.91 299.88 569 C303.25 567.92 306.49 567.42 310 567 C305.09 561.88 299.72 557.2 294 553 Z M-283.54 573.95 C-287.78 580.25 -289.78 586.57 -288.68 594.22 C-287.74 598.06 -286.48 601.73 -285.12 605.44 C-284.87 606.15 -284.61 606.86 -284.35 607.59 C-282.96 611.21 -282.3 612.8 -279 615 C-276.5 615.42 -276.5 615.42 -274 615 C-272.19 613.6 -272.19 613.6 -271 612 C-271.33 610.35 -271.66 608.7 -272 607 C-273.98 607 -275.96 607 -278 607 C-281.43 602.85 -281.51 598.95 -281.35 593.79 C-280.64 588.11 -278.32 583.91 -274.06 580.12 C-268.93 576.56 -265.31 575.45 -259 576 C-255.56 577.5 -255.56 577.5 -253 579 C-251.88 585.62 -251.88 585.62 -253 589 C-251.13 591.26 -251.13 591.26 -248.19 591.44 C-243.92 590.85 -242.65 589.32 -240 586 C-237.67 582.19 -237.66 578.66 -238.27 574.35 C-240.04 568.66 -244.32 565.04 -249.25 562 C-262.87 558.37 -274.89 562.97 -283.54 573.95 Z M223.12 567.94 C219.81 572.72 218.67 575.2 219.56 581 C220.65 585.6 221.94 588.29 226 591 C229.71 591.42 229.71 591.42 233 591 C233.84 588.49 234.03 587.12 233.44 584.5 C233 582 233 582 233.62 579.81 C235.54 577.29 236.93 576.8 240 576 C245.63 575.55 249.19 575.76 254 579 C259.53 584.12 261.72 588.97 262.25 596.56 C262 600.03 261.26 602.77 260 606 C256.53 606.5 256.53 606.5 253 607 C252.22 608.79 252.22 608.79 252 611 C253.35 613.25 253.35 613.25 255 615 C257.31 614.67 259.62 614.34 262 614 C263.03 611.68 264.02 609.35 265 607 C265.36 606.17 265.72 605.33 266.09 604.47 C269.48 596.06 270.51 588.58 267.5 579.88 C263.61 571.26 257.69 565.53 249 562 C239.62 558.87 229.77 560.48 223.12 567.94 Z M-350.94 580.31 C-352.38 583.97 -352.73 587.13 -352 591 C-350.21 593.81 -348.98 595.51 -346 597 C-341.85 597.39 -341.85 597.39 -338.12 595.81 C-336.62 593.38 -336.64 591.81 -337 589 C-337.66 588.34 -338.32 587.68 -339 587 C-339.62 584.88 -339.62 584.88 -340 583 C-331.4 580.98 -321.01 580.38 -313.05 584.68 C-312.04 585.34 -312.04 585.34 -311 586 C-310.23 586.49 -309.46 586.97 -308.67 587.47 C-301.07 592.8 -296.37 600.04 -294 609 C-293.73 611.88 -293.72 614.73 -293.75 617.62 C-293.74 618.75 -293.74 618.75 -293.73 619.9 C-293.74 623.74 -293.83 626.75 -296 630 C-296.99 630 -297.98 630 -299 630 C-299.99 628.35 -300.98 626.7 -302 625 C-305.38 624.69 -307.4 624.65 -310.38 626.38 C-312.9 630.45 -312.75 634.34 -312 639 C-310.21 642.18 -308.8 643.53 -305.69 645.38 C-300.65 646.55 -297.2 645.73 -292.81 643.06 C-287.05 637.61 -285.73 630.47 -285.44 622.81 C-285.9 606.31 -293.65 591.59 -305.47 580.31 C-312.48 574.31 -321.48 571.65 -330.5 570.75 C-339 571.6 -345.32 573.61 -350.94 580.31 Z M283.25 583.19 C272.2 594.57 266.56 608.94 266.72 624.79 C267.29 631.35 269.34 636.92 273.44 642.06 C277.08 644.82 279.39 646.07 284 645.88 C287.46 644.87 289.39 643.46 292 641 C293.85 637.3 293.46 633.04 293 629 C291.58 626.24 291.58 626.24 289 625 C285.96 624.33 285.96 624.33 283 625 C280.96 627.04 280 628.08 280 631 C279.01 630.67 278.02 630.34 277 630 C273.17 621.78 273.28 613.97 276.02 605.49 C277.54 601.63 279.58 598.35 282 595 C282.72 593.97 283.44 592.94 284.19 591.88 C288.24 587.17 294.82 582.96 301 582 C303.7 581.91 306.36 581.86 309.06 581.88 C309.78 581.87 310.5 581.87 311.24 581.86 C314.43 581.87 316.96 581.99 320 583 C319.12 587.88 319.12 587.88 318 589 C317.58 591.42 317.58 591.42 318 594 C320.2 596.46 321.69 596.95 324.94 597.5 C329.11 596.82 330.47 595.33 333 592 C334.35 588.13 334.1 586.31 332.88 582.38 C329.88 576.98 325.68 574.25 320 572 C306.1 569.01 293.26 573.36 283.25 583.19 Z M-286 641 C-287.46 642.54 -287.46 642.54 -288.69 644.5 C-289.34 645.47 -289.34 645.47 -290.01 646.47 C-290.34 646.97 -290.66 647.48 -291 648 C-289.89 648.47 -288.77 648.95 -287.62 649.44 C-276.58 655.06 -269.87 664.45 -264 675 C-263.65 675.62 -263.3 676.24 -262.94 676.88 C-253.5 694.09 -248.12 713.43 -242 732 C-241.67 732 -241.34 732 -241 732 C-240.06 705.34 -251.02 673.49 -268.18 652.93 C-274.79 645.88 -274.79 645.88 -283 641 C-283.99 641 -284.98 641 -286 641 Z M-261 646 C-262.75 648.75 -262.75 648.75 -263 652 C-261.95 654.63 -260.61 656.63 -259 659 C-258.71 658.4 -258.42 657.8 -258.12 657.19 C-257 655 -257 655 -255 652 C-253.89 652.21 -252.77 652.41 -251.62 652.62 C-250.43 652.75 -249.23 652.87 -248 653 C-247.34 652.34 -246.68 651.68 -246 651 C-246.2 647.94 -246.54 645.73 -248.19 643.12 C-253.17 640.03 -257.3 642.1 -261 646 Z M232.62 643.56 C230.61 646.58 230.68 648.44 231 652 C234.05 652.98 235.95 652.98 239 652 C239.99 654.31 240.98 656.62 242 659 C244.21 656.93 244.21 656.93 246 654 C246 650.06 245.6 647.84 243.31 644.62 C239.56 641.99 236.61 640.94 232.62 643.56 Z M254.5 650.06 C235.59 669.86 223.67 703.95 223 731 C223.3 732.34 223.62 733.68 224 735 C224.26 734.23 224.51 733.46 224.78 732.67 C230.2 716.47 235.86 700.54 243 685 C243.53 683.82 244.06 682.65 244.61 681.43 C247.97 674.34 252.14 668.15 257 662 C257.87 660.88 257.87 660.88 258.75 659.75 C262.86 654.74 267.46 651.32 273 648 C272.02 646.83 271.04 645.66 270.06 644.5 C269.52 643.85 268.97 643.2 268.41 642.53 C267.94 642.03 267.48 641.52 267 641 C263.03 641 257.33 647.45 254.5 650.06 Z M-310 655 C-312.35 658.67 -312.23 661.96 -311.53 666.13 C-310.69 669.1 -309.6 670.36 -307 672 C-302.19 672.64 -302.19 672.64 -298.06 670.5 C-297.71 670 -297.36 669.51 -297 669 C-297.66 666.69 -298.32 664.38 -299 662 C-295 662 -295 662 -292.81 664.12 C-292.39 664.59 -291.97 665.05 -291.54 665.52 C-289.72 667.27 -287.77 668.48 -285.62 669.81 C-268.16 681.27 -261.44 704.69 -255.11 723.5 C-254.85 724.26 -254.6 725.02 -254.34 725.8 C-253.06 729.58 -251.8 733.37 -250.56 737.16 C-246.31 750.06 -241.03 762.6 -232.88 773.56 C-232.48 774.1 -232.09 774.64 -231.69 775.19 C-230.49 776.82 -229.26 778.41 -228 780 C-227.55 780.58 -227.09 781.15 -226.62 781.75 C-223.03 786.13 -219.12 789.58 -214.56 792.94 C-213.87 793.45 -213.17 793.97 -212.45 794.5 C-192.83 808.7 -171.26 815.33 -147 814 C-145.77 813.94 -144.54 813.88 -143.27 813.82 C-137.96 813.13 -135.06 812.32 -131.64 808.07 C-127.62 801.29 -125.36 793.86 -127 786 C-128.8 782.11 -130.34 780.47 -133.81 778 C-137.97 776.7 -140.04 777.28 -144 779 C-146.11 780.67 -146.11 780.67 -147 783 C-147.01 785.64 -147.01 785.64 -146 788 C-142.36 790.43 -140.29 790.16 -136 790 C-133.74 793.39 -133.77 795.04 -134.41 799 C-135.43 802.44 -137.13 803.93 -140 806 C-145.47 807.66 -150.43 808.36 -156.12 808.31 C-156.86 808.31 -157.6 808.3 -158.35 808.3 C-179.2 807.86 -197.44 798.35 -213 785 C-213.86 784.29 -214.71 783.58 -215.6 782.84 C-233.59 767.43 -241.59 743.84 -249.11 722.05 C-249.53 720.85 -249.53 720.85 -249.95 719.63 C-251.35 715.61 -252.73 711.58 -254.08 707.55 C-260.8 687.81 -270.92 661.88 -290.57 651.85 C-297.53 649.42 -304.52 649.8 -310 655 Z M259.55 665 C246.64 682.01 239.37 702.22 232.44 722.22 C219.22 760.22 219.22 760.22 206 775 C205.22 775.9 204.44 776.8 203.63 777.73 C188.51 794.03 165.78 807.2 143.29 808.28 C141.61 808.32 139.93 808.35 138.25 808.38 C137.08 808.4 137.08 808.4 135.89 808.42 C129.19 808.36 122.69 807.23 117.44 802.88 C115.44 798.88 115.66 795.39 116 791 C117.49 790.01 117.49 790.01 119 789 C119.97 789.21 120.94 789.41 121.94 789.62 C123.45 789.81 123.45 789.81 125 790 C127.4 788.19 127.4 788.19 129 786 C127.43 781.3 127.43 781.3 124 778 C117.61 777.42 117.61 777.42 112 780 C108.2 784.22 107.32 787.69 107.54 793.2 C108.56 799.41 110.93 806.94 116 811 C135.39 817.98 158.71 813.55 176.9 805.12 C185.42 801.01 192.88 796.27 200 790 C200.81 789.34 201.61 788.67 202.45 787.99 C221.58 771.76 230.4 750.29 238.06 727 C253.91 679.11 253.91 679.11 273.01 667.53 C275.2 665.85 275.86 664.46 277 662 C279.12 661.25 279.12 661.25 281 661 C280.65 661.72 280.3 662.44 279.94 663.19 C278.89 666.33 279.04 667.87 280 671 C281.22 672.43 281.22 672.43 284.81 672.38 C288.07 672.31 288.81 672.15 291.5 670.06 C293.53 665.92 293.95 662.52 293 658 C291.27 654.93 289.2 652.6 286 651 C274.43 650 266.62 656.33 259.55 665 Z M-230 666 C-231.49 667.49 -231.49 667.49 -233 669 C-232.5 669.35 -232.01 669.7 -231.5 670.06 C-230 672 -230 672 -229.5 675.44 C-230 679 -230 679 -231.81 681.44 C-236.49 683.73 -240.88 683.32 -246 683 C-244.48 690.5 -242.32 697.71 -240 705 C-238.05 703.14 -236.72 701.55 -235.25 699.25 C-233.4 696.58 -231.75 694.71 -229.44 692.5 C-224.84 688 -222.53 683.44 -221.94 677.03 C-222.05 673.36 -223.1 671.16 -225 668 C-227.54 666.5 -227.54 666.5 -230 666 Z M212.81 670.88 C210.22 675.34 210.27 678.95 211 684 C212.83 690.57 215.97 695.59 220 701 C221.31 703.94 221.31 703.94 222 706 C224.55 702.18 225.75 698.27 227.19 693.94 C227.47 693.11 227.76 692.28 228.05 691.43 C228.32 690.64 228.58 689.84 228.86 689.03 C229.22 687.94 229.22 687.94 229.59 686.83 C230.22 684.92 230.22 684.92 229 683 C227.45 683.34 227.45 683.34 225.88 683.69 C221.5 684.04 219.68 683.28 216 681 C215 680 215 680 214.75 676.69 C215.01 672.9 215.44 671.67 218 669 C214.9 668.67 214.9 668.67 212.81 670.88 Z M-233.88 703.31 C-240.79 719.84 -236.7 741.37 -230.26 757.55 C-227.74 762.44 -224.42 766.71 -221 771 C-220.56 771.6 -220.11 772.2 -219.65 772.81 C-213.02 781.45 -203.59 785.99 -193 787.88 C-186.63 788.41 -180.35 787.13 -174.62 784.38 C-170.75 780.87 -167.61 777.12 -166.59 771.88 C-166.4 767.49 -167.16 764.34 -170 761 C-172.09 760.12 -172.09 760.12 -174 760 C-173.23 761.24 -173.23 761.24 -172.44 762.5 C-170.69 766.76 -170.53 769.64 -172 774 C-175.12 778.11 -177.98 779.9 -183 781 C-190.96 781.94 -198.73 778.87 -205.19 774.31 C-217.49 764.19 -224.79 750.78 -227 735 C-227.66 727.96 -227.18 722.36 -224 716 C-221.81 714 -221.81 714 -220 713 C-216.15 714.46 -214.92 716.44 -213 720 C-211.9 721.3 -211.9 721.3 -209.19 721.38 C-205.91 721.28 -205.91 721.28 -203.62 719.06 C-201.41 714.88 -201.23 711.64 -202 707 C-203.75 701.69 -206.23 698.06 -211 695 C-221.52 691.49 -227.27 695.16 -233.88 703.31 Z M188.75 700.44 C185.42 705.31 184.47 709.06 185 715 C186.16 717.31 187.17 719.17 189 721 C193.13 721.43 193.13 721.43 196.75 719.75 C198.07 717.91 199.07 716.07 200 714 C202.25 713.69 202.25 713.69 205 714 C209.41 718.41 210.15 722.26 210.31 728.31 C210.12 744.47 203.33 759.32 192.26 770.91 C189.08 773.85 185.85 776.04 182 778 C180.93 778.6 179.86 779.2 178.75 779.81 C172.77 781.71 166.47 782.38 160.52 780.02 C156.82 777.83 154.61 776.06 153 772 C152.54 766.97 153.02 764.1 156 760 C153.78 760.38 152.2 760.87 150.31 762.12 C148.25 765.08 148.12 767.42 148 771 C148.99 776.44 151.42 780.37 155.79 783.74 C164.5 788.71 174.01 788.73 183.49 786.38 C195.11 782.49 203.8 773.23 210 763 C210.46 762.35 210.92 761.71 211.39 761.04 C220.28 747.5 221.98 724.1 218.79 708.59 C217.12 703.1 214.49 699.38 210.31 695.5 C201.78 691.64 194.99 693.67 188.75 700.44 Z M120 793 C119.13 795.25 119.13 795.25 119 798 C120.52 800.85 120.52 800.85 123 803 C125.58 803.67 125.58 803.67 128 804 C127.24 802.35 126.47 800.7 125.69 799.06 C125.26 798.15 124.83 797.23 124.39 796.29 C123.15 793.69 123.15 793.69 120 793 Z M-142 794 C-142.42 794.83 -142.42 794.83 -142.84 795.68 C-144.23 798.45 -145.61 801.23 -147 804 C-143.9 803.66 -142.2 803.15 -139.69 801.25 C-137.69 798.59 -137.64 797.25 -138 794 C-139.32 794 -140.64 794 -142 794 Z M-126.73 806.07 C-130.14 811.26 -130.91 816.91 -130 823 C-127.78 827.27 -127.78 827.27 -124 830 C-119.01 830.48 -119.01 830.48 -114.62 828.38 C-112.61 825.44 -112 823.57 -112 820 C-113.88 817.42 -115.22 816.26 -118.25 815.25 C-118.83 815.17 -119.4 815.09 -120 815 C-119.75 813.12 -119.75 813.12 -119 811 C-117.22 810 -117.22 810 -115 809 C-114.32 808.65 -113.65 808.29 -112.95 807.93 C-104.54 804.01 -95.61 803.46 -86.65 805.92 C-76.7 809.81 -69.97 814.45 -65.12 824.12 C-62.87 829.91 -62.19 835.98 -64 842 C-66.87 841.43 -67.86 841.14 -70 839 C-73.03 839.09 -73.03 839.09 -76 840 C-78.33 843.49 -78.33 844.9 -78 849 C-77.09 851.9 -76.17 852.87 -73.75 854.75 C-70.47 856.24 -68.57 856.52 -65 856 C-60.15 853.23 -57.56 849.26 -56 844 C-54.48 832.27 -57.34 822.36 -64.06 812.75 C-71.28 803.7 -81.43 796.25 -93 794 C-106.5 792.8 -117.88 794.68 -126.73 806.07 Z M44.5 812.85 C37.92 822.27 35.5 831.55 37 843 C40.13 850.64 40.13 850.64 46 856 C50.57 856.12 53.99 855.83 57.56 852.88 C59.38 849.24 59.58 847.01 59 843 C57.54 840.37 57.54 840.37 55 839 C51.61 839.07 49.74 839.38 47.12 841.56 C46.75 842.04 46.38 842.51 46 843 C42.87 838.3 43.42 833.37 44.36 827.92 C46.64 820.34 52.53 814.13 59.15 810.07 C69.02 805.08 78.68 803.34 89.66 805.53 C93.65 806.95 97.01 809.01 100 812 C100 812.99 100 813.98 100 815 C99.2 815.47 98.39 815.95 97.56 816.44 C95.15 817.77 95.15 817.77 94 819 C93.64 822.82 93.46 825.16 95.56 828.44 C98.98 830.63 101.01 830.63 105 830 C108.67 827.05 110.67 824.78 111.24 820.02 C111.49 812.64 109.43 807.81 104.62 802.25 C96 794.86 88.24 793 76.99 793.77 C64.13 795.28 52.59 803.01 44.5 812.85 Z M-53 848 C-56.34 852.49 -58.91 857.12 -58.48 862.9 C-56.34 872.32 -50.74 878.31 -42.82 883.4 C-27.5 891.9 -7.23 894.05 9.68 889.56 C21.62 885.86 31.31 879.77 37.81 869 C40.11 863.19 40.57 858.68 38.16 852.93 C35.78 848.98 32.1 846.05 28 844 C23.41 843.54 20.33 843.28 16.56 846.12 C13.75 849.28 13 850.8 13 855 C13.99 856.49 13.99 856.49 15 858 C17.76 857.5 17.76 857.5 20 856 C22 855.96 24 855.96 26 856 C27.82 858.67 28 860.09 27.88 863.38 C26.18 870.39 22.49 873.89 16.57 877.61 C2.23 885.34 -12.58 885.44 -28 881 C-34.93 878.26 -41.12 874.54 -45 868 C-46.4 863.63 -46.09 861.06 -44 857 C-43 856 -43 856 -40.69 855.75 C-37.56 856.04 -36.31 856.94 -34 859 C-31.67 857.07 -31.67 857.07 -31.56 853.69 C-32.11 849.11 -33.48 847.85 -37 845 C-42.84 842.08 -48.45 843.85 -53 848 Z M44 861 C43.83 861.64 43.66 862.28 43.48 862.94 C43.24 863.81 43 864.67 42.75 865.56 C42.52 866.41 42.29 867.26 42.05 868.13 C41 871 41 871 38.95 874.29 C36.53 878.37 36.33 882.16 36.06 886.81 C35.44 893.91 34.69 900.3 30 906 C27.16 908.35 24.24 910.26 21 912 C21 912.66 21 913.32 21 914 C24.76 914.36 26.74 914.14 30.12 912.38 C36.62 907.01 37.93 901.14 39.33 893.28 C40.67 886.68 43.28 883.04 48.75 878.94 C51.12 877.18 51.12 877.18 52 874.69 C52 870.83 50.84 868.37 49 865 C46.47 862.59 46.47 862.59 44 861 Z M-64 862 C-68.61 866.61 -69.66 869.51 -70 876 C-69.39 876.48 -68.77 876.97 -68.14 877.47 C-60.63 883.69 -58.61 888.15 -57.06 897.56 C-56.11 903.09 -54.94 907.6 -50.39 911.31 C-46.56 913.75 -43.48 914.44 -39 914 C-40.33 910.02 -42.2 909.6 -45.8 907.77 C-50.52 903.98 -53.07 899.16 -53.93 893.2 C-54.11 891.51 -54.28 889.82 -54.44 888.12 C-55.27 881.02 -56.46 875.85 -60.7 869.92 C-62.42 867.38 -62.84 865.03 -63 862 C-63.33 862 -63.66 862 -64 862 Z M-51 883 C-50.72 891.42 -50.25 898.88 -43.94 905 C-41.92 906.23 -41.92 906.23 -39 906 C-37.35 901.38 -35.7 896.76 -34 892 C-34.98 891.52 -35.95 891.04 -36.96 890.54 C-38.24 889.9 -39.53 889.26 -40.81 888.62 C-41.46 888.31 -42.1 887.99 -42.76 887.66 C-45.63 886.24 -48.33 884.78 -51 883 Z M23.74 887.39 C20.88 889.07 17.97 890.55 15 892 C15.78 894.32 16.58 896.63 17.38 898.94 C17.6 899.6 17.82 900.26 18.05 900.94 C19.13 904.68 19.13 904.68 22 907 C27.03 903.49 29.91 900.36 31.58 894.39 C32.26 890.53 32.19 886.91 32 883 C29.26 883 26.01 886 23.74 887.39 Z M-29 894 C-33.62 898.93 -35.04 903.59 -34.96 910.2 C-34.61 915.82 -33.95 920.69 -32 926 C-28.71 923.58 -26.49 921.83 -25 918 C-24.72 915.93 -24.51 913.84 -24.38 911.75 C-24.3 910.67 -24.23 909.59 -24.15 908.48 C-24.1 907.66 -24.05 906.84 -24 906 C-23.01 905.67 -22.02 905.34 -21 905 C-20.91 905.61 -20.83 906.21 -20.74 906.84 C-19.41 914.73 -17.16 922.05 -11.19 927.62 C-10.47 928.08 -9.74 928.53 -9 929 C-1.94 921.56 1.32 915.28 2 905 C2.99 905.33 3.98 905.66 5 906 C5.01 906.77 5.03 907.55 5.04 908.34 C5.37 915.55 6.47 920.32 11 926 C11.66 926 12.32 926 13 926 C16.45 918.81 16.99 911.9 16 904 C14.67 900.3 13.05 897.39 11 894 C7.7 894.33 4.4 894.66 1 895 C0.61 896.32 0.22 897.64 -0.19 899 C-1.78 903.83 -4.12 907.83 -7 912 C-9.75 911.94 -9.75 911.94 -13 911 C-16.58 906.09 -18.22 900.78 -20 895 C-22.97 894.67 -25.94 894.34 -29 894 Z M-14 896 C-13.76 901.74 -13.76 901.74 -10.94 906.5 C-10.3 907 -9.66 907.49 -9 908 C-6.96 906.31 -6.08 905.36 -5.49 902.74 C-5.43 901.94 -5.37 901.14 -5.31 900.31 C-5.21 898.89 -5.11 897.47 -5 896 C-7.97 896 -10.94 896 -14 896 Z " fill="#c69a2a" transform="translate(519,35)"/>
<path d="M0 0 C4.2 3.82 6.47 7.95 6.94 13.66 C7.21 42.77 -19.4 71.35 -36.07 93.43 C-41.37 100.44 -46.57 107.52 -51.76 114.62 C-52.93 116.21 -54.1 117.79 -55.28 119.37 C-59.2 124.76 -62.6 130.44 -65.98 136.18 C-66.45 136.97 -66.92 137.76 -67.41 138.58 C-71.61 145.82 -74.71 152.65 -74.41 161.18 C-74.39 162.21 -74.36 163.24 -74.33 164.3 C-74.28 165.45 -74.28 165.45 -74.23 166.61 C-63.24 168.18 -55.37 162.73 -46.89 156.45 C-29.26 143.08 -12.73 128.32 2.79 112.56 C5.38 110.01 8.12 107.66 10.87 105.29 C15.22 101.46 19.2 97.33 22.96 92.92 C27.53 87.67 32.49 82.84 37.46 77.97 C41.51 73.96 45.37 69.87 49.08 65.55 C51.85 62.38 54.76 59.35 57.65 56.3 C62.45 51.19 67.03 45.99 71.41 40.52 C74.41 36.83 77.49 33.22 80.59 29.61 C81.14 28.97 81.69 28.32 82.26 27.65 C87.03 22.13 90.15 19.24 97.58 18.6 C100.34 18.62 102.36 19.29 104.77 20.61 C104.18 24.76 102.81 27.69 100.71 31.3 C100.2 32.18 100.2 32.18 99.68 33.07 C95.27 40.59 90.63 47.97 86.05 55.39 C79.69 65.68 73.58 76.11 67.53 86.58 C64.45 91.89 61.36 97.19 58.27 102.49 C57.43 103.94 57.43 103.94 56.57 105.42 C53.49 110.69 50.39 115.94 47.24 121.17 C45.3 124.4 43.4 127.65 41.49 130.89 C35.02 141.89 28.44 152.8 21.8 163.7 C18.51 169.11 15.22 174.53 12 179.99 C-5.67 209.88 -28.06 243.37 -62.68 254.7 C-73.67 257.53 -84.45 257.53 -94.73 252.36 C-100.99 248.48 -106.01 243.41 -109.73 237.05 C-110.56 232.98 -110.2 229.3 -108.1 225.68 C-105.12 223.99 -102.57 224.31 -99.23 224.61 C-95.38 227.18 -95.28 229.61 -94.35 233.86 C-92.47 241.75 -92.47 241.75 -87.23 247.61 C-79.9 251.34 -72.95 251.07 -65.23 248.61 C-31.57 233.45 -11.44 189.54 5.95 159.25 C9.51 153.06 13.1 146.9 16.71 140.74 C21.87 131.92 26.96 123.06 32.02 114.18 C39.69 100.72 47.5 87.36 55.5 74.1 C59.37 67.66 63.08 61.15 66.77 54.61 C60.53 60.75 54.42 66.91 48.77 73.61 C47.73 74.84 46.69 76.07 45.65 77.3 C45.21 77.82 44.78 78.34 44.33 78.88 C41.48 82.06 38.39 85.01 35.34 88.01 C34.13 89.2 34.13 89.2 32.9 90.43 C32.1 91.22 31.29 92.01 30.47 92.82 C28.41 94.95 26.47 97.1 24.55 99.34 C19.6 105.04 14.18 110.26 8.8 115.55 C4.46 119.85 0.27 124.2 -3.69 128.85 C-8.14 133.97 -13.14 138.45 -18.27 142.87 C-20.11 144.51 -21.83 146.21 -23.54 147.99 C-36.45 161.05 -56.41 178.76 -75.66 178.99 C-81.5 178.88 -84.72 178.36 -89.23 174.61 C-93.8 168.84 -94.42 162.88 -94.23 155.61 C-91.35 130.99 -71 108.8 -55.94 90.4 C-51.38 84.83 -46.94 79.19 -42.6 73.44 C-41.62 72.14 -40.64 70.84 -39.65 69.54 C-16.95 41.89 -16.95 41.89 -8.23 8.61 C-9.93 4.04 -12.66 2.48 -16.86 0.46 C-21.1 -1.06 -25.27 -0.98 -29.73 -0.89 C-30.69 -0.87 -31.66 -0.86 -32.66 -0.85 C-66.8 0.1 -98.31 23.12 -121.73 46.15 C-122.98 47.37 -124.26 48.56 -125.54 49.74 C-134.84 58.44 -141.83 69.06 -147.29 80.49 C-147.66 81.26 -148.03 82.03 -148.41 82.83 C-152.99 92.88 -154.79 102.48 -151.25 113.18 C-149.22 118 -146.72 121.42 -141.93 123.71 C-129.37 127.92 -119 124.65 -107.48 119.11 C-96.63 113.7 -87.52 105.96 -78.68 97.76 C-77.23 96.61 -77.23 96.61 -75.23 96.61 C-74.9 97.93 -74.57 99.25 -74.23 100.61 C-87.91 117.43 -106.39 131.77 -128.23 135.61 C-138.17 136.61 -146.68 135.46 -154.99 129.7 C-160.95 124.77 -164.18 120.05 -166.23 112.61 C-166.51 111.72 -166.51 111.72 -166.79 110.8 C-170.48 92.18 -163.32 75.01 -153.3 59.67 C-138.13 38.28 -116.46 22.28 -93.23 10.61 C-92.5 10.25 -91.78 9.88 -91.04 9.5 C-66.57 -2.81 -24.89 -18.64 0 0 Z " fill="#c69a2a" transform="translate(487.2265625,218.38671875)"/>
<path d="M0 0 C0 3.53 -0.54 4.02 -2.75 6.62 C-3.33 7.33 -3.92 8.03 -4.52 8.75 C-5.15 9.49 -5.79 10.23 -6.44 11 C-7.73 12.54 -9.02 14.09 -10.32 15.63 C-10.95 16.38 -11.58 17.13 -12.23 17.9 C-14.47 20.56 -16.68 23.25 -18.88 25.94 C-19.92 27.22 -19.92 27.22 -20.99 28.53 C-23.67 31.83 -26.32 35.15 -28.97 38.47 C-31.88 42.1 -34.83 45.69 -37.78 49.28 C-39.87 51.84 -41.94 54.42 -44 57 C-47.45 61.32 -50.94 65.61 -54.45 69.88 C-57.48 73.58 -60.49 77.29 -63.5 81 C-68.65 87.35 -73.82 93.68 -79 100 C-80.5 101.83 -82 103.67 -83.5 105.5 C-86.5 109.17 -89.5 112.83 -92.5 116.5 C-93.62 117.87 -93.62 117.87 -94.77 119.27 C-96.21 121.04 -97.66 122.81 -99.11 124.57 C-102.45 128.65 -105.79 132.73 -109.11 136.83 C-114.92 144 -120.76 151.14 -126.68 158.22 C-132.03 164.64 -137.29 171.12 -142.55 177.61 C-152.53 189.91 -162.53 202.18 -172.88 214.18 C-176.37 218.24 -179.75 222.38 -183.08 226.58 C-185.92 230.16 -188.82 233.69 -191.72 237.22 C-193.21 239.04 -194.7 240.86 -196.18 242.68 C-200.72 248.26 -205.33 253.76 -209.98 259.23 C-212.71 262.45 -215.38 265.7 -218 269 C-221.53 273.45 -225.18 277.79 -228.86 282.11 C-231.78 285.55 -234.66 289.01 -237.5 292.5 C-241.25 297.1 -245.07 301.64 -248.91 306.16 C-251.81 309.58 -254.67 313.03 -257.5 316.5 C-264.82 325.48 -272.32 334.32 -280 343 C-280 338.82 -278.21 337.57 -275.5 334.44 C-274.57 333.35 -273.64 332.26 -272.71 331.17 C-272.24 330.63 -271.78 330.09 -271.3 329.53 C-269.55 327.47 -267.87 325.37 -266.19 323.25 C-262.67 318.83 -259.12 314.44 -255.56 310.06 C-255 309.37 -254.43 308.67 -253.85 307.96 C-250.71 304.09 -247.54 300.23 -244.38 296.38 C-241.13 292.42 -237.96 288.41 -234.81 284.38 C-228.87 276.77 -222.72 269.33 -216.57 261.89 C-210.84 254.96 -205.17 247.98 -199.5 241 C-193.22 233.27 -186.93 225.54 -180.58 217.86 C-173.34 209.14 -173.34 209.14 -166.31 200.25 C-163.08 196.03 -159.64 191.99 -156.19 187.94 C-152.5 183.61 -148.89 179.21 -145.3 174.8 C-142.78 171.73 -140.21 168.71 -137.62 165.69 C-133.3 160.62 -129.15 155.43 -125.06 150.17 C-121.25 145.29 -117.31 140.53 -113.33 135.79 C-111.2 133.24 -109.12 130.66 -107.06 128.06 C-103.95 124.14 -100.74 120.31 -97.5 116.5 C-93.57 111.88 -89.72 107.2 -85.95 102.45 C-80.12 95.13 -74.13 87.96 -68.08 80.83 C-63.65 75.61 -59.32 70.31 -55 65 C-48.13 56.58 -41.28 48.2 -33.94 40.18 C-31.44 37.37 -29.16 34.41 -26.88 31.42 C-20.89 23.71 -14.48 16.3 -8 9 C-7.27 8.18 -6.54 7.36 -5.79 6.51 C-3.86 4.34 -1.93 2.17 0 0 Z " fill="#c69a2a" transform="translate(646,281)"/>
<path d="M0 0 C3.22 3.3 5.37 5.68 5.69 10.38 C5.63 11.1 5.56 11.82 5.5 12.56 C2.74 11.52 1.68 10.92 0.31 8.25 C-2.75 3.71 -7.8 1.22 -13.07 -0.06 C-28.6 -2.46 -43.88 4.5 -56.41 13.2 C-59.51 15.21 -59.51 15.21 -60.5 17.56 C-59.94 17.79 -59.39 18.02 -58.81 18.25 C-51.29 22.52 -46.04 30.45 -43.5 38.56 C-41.23 50.52 -43.19 61.08 -49.86 71.27 C-61.71 87.83 -79.42 97.42 -98.5 103.56 C-97.34 104.09 -97.34 104.09 -96.16 104.63 C-84.34 110.23 -77.22 116.09 -72.39 128.38 C-68.33 142.86 -73.21 157.47 -79.75 170.38 C-92.21 192.06 -113.58 206.87 -137.5 213.56 C-143.11 214.89 -148.78 215.82 -154.5 216.56 C-155.57 216.7 -155.57 216.7 -156.66 216.85 C-183.46 220.13 -210.51 215.08 -236.89 210.65 C-239.09 210.28 -241.3 209.92 -243.5 209.56 C-244.22 209.44 -244.94 209.33 -245.67 209.2 C-263.13 206.65 -287.75 205.31 -302.95 216.06 C-305.79 218.81 -307.7 222.07 -309.5 225.56 C-312.5 224.56 -312.5 224.56 -313.69 222.5 C-315.57 215.7 -314.77 210.75 -311.5 204.56 C-307.16 197.65 -300.12 195.45 -292.5 193.56 C-273.12 191.52 -253.8 197.58 -235.31 202.62 C-217.67 207.41 -201.35 210.87 -183 211 C-181.77 211.01 -180.54 211.02 -179.28 211.03 C-157.01 210.82 -137.4 202.81 -120.5 188.56 C-119.65 187.89 -118.79 187.23 -117.91 186.54 C-114.3 183.58 -111.46 180.16 -108.5 176.56 C-107.41 175.25 -107.41 175.25 -106.3 173.9 C-94.98 159.61 -88.63 143.99 -90.5 125.56 C-91.76 121.9 -93.47 118.84 -95.5 115.56 C-95.83 114.57 -96.16 113.58 -96.5 112.56 C-98.28 111.42 -98.28 111.42 -100.5 110.56 C-101.2 110.19 -101.9 109.82 -102.62 109.44 C-109.54 107.33 -115.91 108.27 -122.49 111 C-124.86 111.66 -126.2 111.34 -128.5 110.56 C-128.17 108.91 -127.84 107.26 -127.5 105.56 C-123.52 103.79 -119.72 102.98 -115.44 102.25 C-103.41 99.97 -94.02 95.28 -84.5 87.56 C-83.64 86.88 -82.79 86.2 -81.91 85.5 C-70.42 75.84 -61.69 62.59 -59.5 47.56 C-58.77 38.5 -60.85 29.77 -66.5 22.56 C-71.81 25.24 -75.62 29.38 -79.75 33.56 C-80.51 34.33 -81.27 35.1 -82.06 35.89 C-87.58 41.52 -92.72 47.29 -97.5 53.56 C-98.49 54.84 -99.48 56.11 -100.47 57.38 C-101.56 58.79 -102.66 60.21 -103.75 61.62 C-104.46 62.55 -104.46 62.55 -105.19 63.5 C-116.78 78.68 -127.49 94.39 -137.94 110.38 C-140.37 114.09 -142.81 117.81 -145.25 121.52 C-145.84 122.43 -146.44 123.34 -147.05 124.27 C-151.37 130.86 -155.71 137.42 -160.08 143.97 C-160.65 144.82 -161.21 145.68 -161.8 146.55 C-169.19 157.63 -176.76 168.49 -185.5 178.56 C-186.11 179.27 -186.72 179.98 -187.35 180.7 C-196.94 191.05 -212.21 200.59 -226.5 201.56 C-226.5 200.57 -226.5 199.58 -226.5 198.56 C-225.81 198.16 -225.12 197.76 -224.41 197.35 C-205.51 185.91 -194.36 166.63 -182.48 148.57 C-180.33 145.31 -178.17 142.06 -176 138.82 C-175.22 137.65 -174.44 136.49 -173.66 135.32 C-173.27 134.75 -172.89 134.17 -172.49 133.57 C-167.14 125.57 -161.82 117.55 -156.62 109.44 C-138.64 81.43 -118.22 55.34 -94.81 31.69 C-93.78 30.64 -93.78 30.64 -92.73 29.56 C-88.48 25.31 -84.07 21.52 -79.27 17.91 C-77.57 16.68 -77.57 16.68 -76.5 15.56 C-105.91 1.94 -136.07 5.69 -165.83 15.68 C-184.92 22.99 -201.79 35.62 -216.5 49.56 C-217.84 50.83 -217.84 50.83 -219.21 52.11 C-236.12 68.48 -253.1 90.7 -253.88 114.94 C-253.75 122.36 -252.82 128.51 -248.03 134.36 C-241.64 140.45 -232.9 142.7 -224.5 144.56 C-224.83 145.55 -225.16 146.54 -225.5 147.56 C-236.44 148.4 -246.8 144.04 -255.5 137.56 C-262.76 130.91 -266.57 122.29 -267.5 112.56 C-268.42 87.41 -252.83 66.79 -236.87 49.08 C-208.36 18.79 -167.3 2.25 -126.02 0.45 C-109.3 0.04 -94.25 1.47 -78.46 7.12 C-77.44 7.48 -77.44 7.48 -76.4 7.85 C-74.7 8.49 -73.05 9.24 -71.41 10 C-67.87 10.68 -66.39 9.79 -63.45 7.84 C-62.55 7.21 -62.55 7.21 -61.62 6.56 C-44.56 -4.52 -18.05 -14.01 0 0 Z " fill="#c69a2a" transform="translate(738.5,432.4375)"/>
<path d="M0 0 C2.25 0.12 2.25 0.12 5 1 C7.31 4.06 7.31 4.06 9 7 C9.31 6.49 9.63 5.99 9.95 5.47 C10.6 4.49 10.6 4.49 11.25 3.5 C11.67 2.85 12.09 2.2 12.52 1.53 C13.01 1.03 13.5 0.52 14 0 C15.32 0 16.64 0 18 0 C16.94 3 15.83 5.23 13.94 7.81 C11.54 11.76 11.32 14.43 11 19 C9.68 19.33 8.36 19.66 7 20 C6.94 18.05 6.94 18.05 6.88 16.06 C6.35 11 4.28 7.86 1.28 3.85 C0 2 0 2 0 0 Z " fill="#c69a2a" transform="translate(322,699)"/>
<path d="M0 0 C4.29 0 8.58 0 13 0 C13 1.32 13 2.64 13 4 C10.03 4 7.06 4 4 4 C4 5.32 4 6.64 4 8 C6.97 8 9.94 8 13 8 C12.67 9.32 12.34 10.64 12 12 C9.36 12 6.72 12 4 12 C4 13.65 4 15.3 4 17 C7.3 17 10.6 17 14 17 C14 17.99 14 18.98 14 20 C9.38 20 4.76 20 0 20 C0 13.4 0 6.8 0 0 Z " fill="#c69a2a" transform="translate(346,699)"/>
<path d="M0 0 C4.95 0 9.9 0 15 0 C15 1.32 15 2.64 15 4 C13.35 4 11.7 4 10 4 C10 8.95 10 13.9 10 19 C8.68 19.33 7.36 19.66 6 20 C6 14.72 6 9.44 6 4 C4.02 4 2.04 4 0 4 C0 2.68 0 1.36 0 0 Z " fill="#c69a2a" transform="translate(366,699)"/>
<path d="M0 0 C1.32 0 2.64 0 4 0 C4.33 5.28 4.66 10.56 5 16 C7.31 16 9.62 16 12 16 C12.33 10.72 12.66 5.44 13 0 C14.32 0 15.64 0 17 0 C17.14 2.4 17.23 4.79 17.31 7.19 C17.35 7.86 17.4 8.53 17.44 9.23 C17.54 13.16 17.14 14.82 14.7 17.95 C12 20 12 20 8.5 20.62 C4.03 19.83 2.78 18.56 0 15 C-0.37 12.16 -0.49 9.98 -0.31 7.19 C-0.29 6.49 -0.27 5.8 -0.24 5.09 C-0.19 3.39 -0.1 1.7 0 0 Z " fill="#c69a2a" transform="translate(387,699)"/>
<path d="M0 0 C4.08 0.06 6.56 0.53 9.75 3.25 C11.89 5.98 12.68 7.83 13.25 11.25 C12.58 15.28 10.83 16.68 7.75 19.25 C5.11 20.57 3.07 20.35 0.12 20.31 C-0.88 20.3 -1.88 20.29 -2.91 20.29 C-3.68 20.27 -4.46 20.26 -5.25 20.25 C-5.28 17.1 -5.3 13.96 -5.31 10.81 C-5.32 9.91 -5.33 9.02 -5.34 8.09 C-5.34 7.24 -5.34 6.38 -5.35 5.5 C-5.36 4.32 -5.36 4.32 -5.36 3.11 C-5.15 -0.46 -3.1 0.06 0 0 Z M-1.25 4.25 C-1.25 8.21 -1.25 12.17 -1.25 16.25 C1.23 16.75 1.23 16.75 3.75 17.25 C6.44 15.15 6.44 15.15 8.75 12.25 C8.93 9.07 8.93 9.07 7.75 6.25 C4.52 3.7 4.52 3.7 -1.25 4.25 Z " fill="#c69a2a" transform="translate(440.25,698.75)"/>
<path d="M0 0 C4.29 0 8.58 0 13 0 C13 1.32 13 2.64 13 4 C10.03 4 7.06 4 4 4 C4 4.99 4 5.98 4 7 C6.64 7.33 9.28 7.66 12 8 C12 9.32 12 10.64 12 12 C9.36 12 6.72 12 4 12 C4.33 13.32 4.66 14.64 5 16 C7.97 16.33 10.94 16.66 14 17 C14 17.99 14 18.98 14 20 C9.38 20 4.76 20 0 20 C-1.02 13.06 -0.79 6.97 0 0 Z " fill="#c69a2a" transform="translate(460,699)"/>
<path d="M0 0 C1.94 1.56 1.94 1.56 3 4 C2.19 7.75 2.19 7.75 1 11 C1.66 11.33 2.32 11.66 3 12 C3 11.34 3 10.68 3 10 C3.99 10 4.98 10 6 10 C5.79 10.93 5.59 11.86 5.38 12.81 C4.63 16.15 4.63 16.15 7 19 C3.25 20.12 3.25 20.12 1 19 C0.34 19.33 -0.32 19.66 -1 20 C-5.05 20.26 -6.54 20.3 -10 18 C-10.19 13.92 -9.85 11.58 -8 8 C-8.02 7.15 -8.04 6.31 -8.06 5.44 C-8 3 -8 3 -6.81 1.19 C-4.33 -0.44 -2.91 -0.51 0 0 Z M-4 3 C-4 4.32 -4 5.64 -4 7 C-3.01 7 -2.02 7 -1 7 C-1 5.68 -1 4.36 -1 3 C-1.99 3 -2.98 3 -4 3 Z M-6 12 C-6.33 12.99 -6.66 13.98 -7 15 C-6.34 15.66 -5.68 16.32 -5 17 C-3.68 16.67 -2.36 16.34 -1 16 C-1.66 14.68 -2.32 13.36 -3 12 C-3.99 12 -4.98 12 -6 12 Z " fill="#c69a2a" transform="translate(501,699)"/>
<path d="M0 0 C0.87 -0.01 1.75 -0.03 2.64 -0.04 C5.34 0.2 6.94 0.7 9.19 2.19 C10.29 5.48 10.3 6.85 9.19 10.19 C10.18 11.67 10.18 11.67 11.19 13.19 C11 15.75 11 15.75 10.19 18.19 C6.66 20.54 5.16 20.4 1 20.31 C-0.09 20.29 -1.17 20.28 -2.29 20.26 C-3.54 20.22 -3.54 20.22 -4.81 20.19 C-6.46 16.89 -5.96 13.24 -5.94 9.62 C-5.94 8.83 -5.95 8.04 -5.95 7.22 C-5.94 0.04 -5.94 0.04 0 0 Z M-1.81 4.19 C-1.81 5.51 -1.81 6.83 -1.81 8.19 C0.5 8.19 2.81 8.19 5.19 8.19 C5.19 6.87 5.19 5.55 5.19 4.19 C2.88 4.19 0.57 4.19 -1.81 4.19 Z M-1.81 12.19 C-1.48 13.84 -1.15 15.49 -0.81 17.19 C2.65 16.69 2.65 16.69 6.19 16.19 C6.19 14.87 6.19 13.55 6.19 12.19 C3.55 12.19 0.91 12.19 -1.81 12.19 Z " fill="#c69a2a" transform="translate(530.8125,698.8125)"/>
<path d="M0 0 C1.88 0.27 1.88 0.27 4 1 C5.1 2.64 5.1 2.64 5.92 4.75 C6.22 5.5 6.53 6.26 6.84 7.03 C7.14 7.83 7.44 8.62 7.75 9.44 C8.07 10.23 8.38 11.02 8.71 11.83 C11 17.65 11 17.65 11 20 C9.68 20 8.36 20 7 20 C6.34 18.68 5.68 17.36 5 16 C3.72 16.1 2.44 16.21 1.12 16.31 C0.41 16.37 -0.31 16.43 -1.05 16.49 C-3.4 16.87 -3.4 16.87 -5 20 C-5.99 20 -6.98 20 -8 20 C-7.45 14.99 -5.76 11.03 -3.44 6.62 C-3.11 5.98 -2.78 5.34 -2.44 4.68 C-1.63 3.12 -0.82 1.56 0 0 Z M1 6 C0.01 7.98 -0.98 9.96 -2 12 C-0.02 12 1.96 12 4 12 C3.34 10.02 2.68 8.04 2 6 C1.67 6 1.34 6 1 6 Z " fill="#c69a2a" transform="translate(555,699)"/>
<path d="M0 0 C3.62 0.04 5.29 0.08 8.44 1.94 C10.1 5.1 9.42 6.89 8.69 10.31 C9.68 11.8 9.68 11.8 10.69 13.31 C10.5 15.88 10.5 15.88 9.69 18.31 C6.06 20.73 4.3 20.52 0 20.44 C-1.18 20.42 -2.36 20.4 -3.57 20.38 C-4.48 20.36 -5.38 20.34 -6.31 20.31 C-6.34 17.17 -6.36 14.02 -6.38 10.88 C-6.38 9.98 -6.39 9.08 -6.4 8.15 C-6.4 7.3 -6.41 6.45 -6.41 5.57 C-6.42 4.38 -6.42 4.38 -6.43 3.17 C-6.19 -0.74 -3.3 0.08 0 0 Z M-2.31 4.31 C-2.31 5.96 -2.31 7.61 -2.31 9.31 C1.15 8.82 1.15 8.82 4.69 8.31 C4.69 6.99 4.69 5.67 4.69 4.31 C2.38 4.31 0.07 4.31 -2.31 4.31 Z M-2.31 12.31 C-2.31 13.96 -2.31 15.61 -2.31 17.31 C-0 17.31 2.31 17.31 4.69 17.31 C5.02 15.66 5.35 14.01 5.69 12.31 C3.05 12.31 0.41 12.31 -2.31 12.31 Z " fill="#c69a2a" transform="translate(578.3125,698.6875)"/>
<path d="M0 0 C1.32 0 2.64 0 4 0 C5.34 2.96 6.67 5.91 8 8.88 C8.38 9.72 8.76 10.56 9.16 11.43 C9.52 12.23 9.88 13.04 10.25 13.87 C10.59 14.61 10.92 15.35 11.27 16.12 C12 18 12 18 12 20 C10.68 20 9.36 20 8 20 C7.67 18.68 7.34 17.36 7 16 C3.7 16 0.4 16 -3 16 C-3.33 17.32 -3.66 18.64 -4 20 C-5.32 20 -6.64 20 -8 20 C-5.84 13.06 -3.11 6.57 0 0 Z M1 6 C0.34 7.98 -0.32 9.96 -1 12 C0.98 12 2.96 12 5 12 C4.34 10.02 3.68 8.04 3 6 C2.34 6 1.68 6 1 6 Z " fill="#c69a2a" transform="translate(601,699)"/>
<path d="M0 0 C4.62 0 9.24 0 14 0 C14 1.32 14 2.64 14 4 C12.35 4 10.7 4 9 4 C9 9.28 9 14.56 9 20 C7.68 20 6.36 20 5 20 C5 14.72 5 9.44 5 4 C3.35 4 1.7 4 0 4 C0 2.68 0 1.36 0 0 Z " fill="#c69a2a" transform="translate(616,699)"/>
<path d="M0 0 C0.99 0 1.98 0 3 0 C3.04 0.9 3.07 1.81 3.11 2.74 C3.18 3.92 3.24 5.1 3.31 6.31 C3.37 7.48 3.43 8.66 3.49 9.86 C4.02 13.1 4.42 14.09 7 16 C8.32 15.67 9.64 15.34 11 15 C11.33 10.05 11.66 5.1 12 0 C13.32 0 14.64 0 16 0 C16.11 2.58 16.19 5.16 16.25 7.75 C16.3 8.84 16.3 8.84 16.35 9.96 C16.42 13.49 16.3 15.57 14.23 18.48 C11.89 20.08 10.8 20.54 8 20.5 C7.34 20.51 6.68 20.52 6 20.53 C2.94 19.72 1.84 18.58 0 16 C-0.29 13.11 -0.38 10.62 -0.25 7.75 C-0.23 7 -0.21 6.26 -0.2 5.49 C-0.15 3.66 -0.08 1.83 0 0 Z " fill="#c69a2a" transform="translate(637,699)"/>
<path d="M0 0 C3.05 0.32 3.91 0.89 5.92 3.29 C6.53 4.2 7.13 5.12 7.75 6.06 C8.36 6.98 8.98 7.9 9.61 8.85 C10.07 9.56 10.53 10.27 11 11 C11.33 7.7 11.66 4.4 12 1 C13.32 0.67 14.64 0.34 16 0 C16 6.6 16 13.2 16 20 C11.29 18.82 10.6 17.7 7.75 13.94 C7.04 13.02 6.34 12.1 5.61 11.15 C5.08 10.44 4.55 9.73 4 9 C3.67 12.63 3.34 16.26 3 20 C1.68 19.67 0.36 19.34 -1 19 C-1.03 16.02 -1.05 13.04 -1.06 10.06 C-1.07 9.21 -1.08 8.36 -1.09 7.49 C-1.09 6.68 -1.09 5.87 -1.1 5.04 C-1.1 4.29 -1.11 3.54 -1.11 2.77 C-1 1 -1 1 0 0 Z " fill="#c69a2a" transform="translate(661,699)"/>
<path d="M0 0 C4.92 0.09 7.86 0.98 11.62 4.25 C13.64 7.89 13.61 10.06 12.9 14.09 C12.25 16.19 12.25 16.19 10.38 18.75 C5.76 20.87 1.26 20.7 -3.75 20.19 C-5.27 18.67 -4.88 17.31 -4.88 15.19 C-4.88 14.38 -4.89 13.58 -4.89 12.75 C-4.88 11.9 -4.88 11.06 -4.88 10.19 C-4.88 9.34 -4.88 8.5 -4.89 7.62 C-4.88 6.42 -4.88 6.42 -4.88 5.19 C-4.88 4.45 -4.88 3.7 -4.88 2.94 C-4.63 -0.46 -3.53 0.18 0 0 Z M-0.75 4.19 C-0.75 8.15 -0.75 12.11 -0.75 16.19 C3.13 17.62 3.13 17.62 5.94 15.81 C8.11 14.39 8.11 14.39 9.25 13.19 C8.97 8.16 8.97 8.16 6.25 4.19 C2.67 4.02 2.67 4.02 -0.75 4.19 Z " fill="#c69a2a" transform="translate(688.75,698.8125)"/>
<path d="M0 0 C4.62 0 9.24 0 14 0 C14 1.32 14 2.64 14 4 C10.37 4 6.74 4 3 4 C3 5.32 3 6.64 3 8 C5.97 8 8.94 8 12 8 C12 9.32 12 10.64 12 12 C9.36 12 6.72 12 4 12 C4 13.32 4 14.64 4 16 C7.3 16.33 10.6 16.66 14 17 C14 17.99 14 18.98 14 20 C9.38 20 4.76 20 0 20 C0 13.4 0 6.8 0 0 Z " fill="#c69a2a" transform="translate(709,699)"/>
<path d="M0 0 C0.99 0.33 1.98 0.66 3 1 C3 7.27 3 13.54 3 20 C-2 19 -2 19 -4.02 16.71 C-4.61 15.8 -5.2 14.88 -5.81 13.94 C-6.42 13.02 -7.02 12.1 -7.64 11.15 C-8.09 10.44 -8.54 9.73 -9 9 C-9.33 12.63 -9.66 16.26 -10 20 C-11.32 20 -12.64 20 -14 20 C-14 13.73 -14 7.46 -14 1 C-8.58 2.08 -8.19 2.39 -5.19 6.56 C-4.58 7.39 -3.98 8.22 -3.36 9.07 C-2.91 9.7 -2.46 10.34 -2 11 C-1.94 10.29 -1.88 9.58 -1.82 8.85 C-1.73 7.93 -1.65 7.01 -1.56 6.06 C-1.48 5.15 -1.4 4.23 -1.32 3.29 C-1 1 -1 1 0 0 Z " fill="#c69a2a" transform="translate(425,699)"/>
<path d="M0 0 C0.99 0 1.98 0 3 0 C3.33 5.61 3.66 11.22 4 17 C2.68 17 1.36 17 0 17 C0 11.39 0 5.78 0 0 Z " fill="#c69a2a" transform="translate(417,753)"/>
<path d="M0 0 C2.38 0.31 2.38 0.31 5 1 C5.66 1.99 6.32 2.98 7 4 C7.66 4 8.32 4 9 4 C9.71 3.01 9.71 3.01 10.44 2 C10.95 1.34 11.47 0.68 12 0 C12.99 0 13.98 0 15 0 C13.93 2.92 13.22 4.78 11 7 C11.61 10.99 13.71 13.74 16 17 C13.62 16.69 13.62 16.69 11 16 C10.34 15.01 9.68 14.02 9 13 C8.34 13 7.68 13 7 13 C5.36 14.96 5.36 14.96 4 17 C2.68 16.67 1.36 16.34 0 16 C1.65 13.69 3.3 11.38 5 9 C4.36 7.89 3.72 6.77 3.06 5.62 C1.99 3.77 0.96 1.92 0 0 Z " fill="#c69a2a" transform="translate(429,753)"/>
<path d="M0 0 C3.69 0.5 5.6 1.1 8 4 C8.99 2.68 9.98 1.36 11 0 C12.32 0.33 13.64 0.66 15 1 C14.32 1.91 13.64 2.82 12.94 3.75 C10.81 6.66 10.81 6.66 11.06 9 C12.33 11.7 13.62 14.36 15 17 C11.31 16.5 9.4 15.9 7 13 C6.59 13.64 6.18 14.28 5.75 14.94 C3.82 17.21 2.89 17.6 0 18 C0.65 14.51 2.1 11.97 4 9 C3.57 8.16 3.57 8.16 3.12 7.31 C1.96 4.92 0.97 2.48 0 0 Z " fill="#c69a2a" transform="translate(465,753)"/>
<path d="M0 0 C1.32 0 2.64 0 4 0 C5.32 1.98 6.64 3.96 8 6 C10.02 4.07 11.42 2.37 13 0 C14.32 0 15.64 0 17 0 C17 5.61 17 11.22 17 17 C15.68 17 14.36 17 13 17 C12.67 14.36 12.34 11.72 12 9 C10.68 10.32 9.36 11.64 8 13 C6.68 11.35 5.36 9.7 4 8 C3.67 10.97 3.34 13.94 3 17 C2.01 17 1.02 17 0 17 C0 11.39 0 5.78 0 0 Z " fill="#c69a2a" transform="translate(501,753)"/>
<path d="M0 0 C5 1 5 1 6.69 3.5 C7.12 4.33 7.55 5.15 8 6 C8.66 6.33 9.32 6.66 10 7 C10.31 6.22 10.62 5.43 10.94 4.62 C12 2 12 2 13 0 C14.32 0 15.64 0 17 0 C17 5.61 17 11.22 17 17 C16.01 17 15.02 17 14 17 C13.67 14.03 13.34 11.06 13 8 C12.01 9.65 11.02 11.3 10 13 C6.12 11.25 6.12 11.25 5 9 C4.67 11.64 4.34 14.28 4 17 C2.68 17 1.36 17 0 17 C0 11.39 0 5.78 0 0 Z " fill="#c69a2a" transform="translate(527,753)"/>
<path d="M0 0 C1.32 0 2.64 0 4 0 C4.66 1.65 5.32 3.3 6 5 C7.65 3.35 9.3 1.7 11 0 C12.32 0.33 13.64 0.66 15 1 C12.52 4.47 12.52 4.47 10 8 C11.65 10.97 13.3 13.94 15 17 C9.98 16 9.14 15.6 6 12 C5.34 13.65 4.68 15.3 4 17 C2.35 17 0.7 17 -1 17 C0.65 14.03 2.3 11.06 4 8 C3.01 6.58 3.01 6.58 2 5.12 C0 2 0 2 0 0 Z " fill="#c69a2a" transform="translate(553,753)"/>
<path d="M0 0 C3.69 0.5 5.6 1.1 8 4 C8.41 3.34 8.83 2.68 9.25 2 C9.83 1.34 10.4 0.68 11 0 C12.32 0 13.64 0 15 0 C13.8 2.49 12.55 4.68 11 7 C11.33 10.41 12.96 12.34 15 15 C15 15.66 15 16.32 15 17 C11.31 16.5 9.4 15.9 7 13 C6.01 14.32 5.02 15.64 4 17 C2.68 16.67 1.36 16.34 0 16 C0.68 15.09 1.36 14.18 2.06 13.25 C4.19 10.34 4.19 10.34 3.94 8 C2.67 5.3 1.38 2.64 0 0 Z " fill="#c69a2a" transform="translate(575,753)"/>
<path d="M0 0 C1.32 0 2.64 0 4 0 C5.32 3.3 6.64 6.6 8 10 C9.65 6.7 11.3 3.4 13 0 C14.32 0.33 15.64 0.66 17 1 C16.1 3.47 15.18 5.92 14.25 8.38 C14 9.07 13.74 9.77 13.48 10.49 C11.49 15.67 11.49 15.67 8.8 17.48 C8.2 17.65 7.61 17.82 7 18 C6.21 16.44 5.41 14.88 4.62 13.31 C3.96 12.01 3.96 12.01 3.29 10.68 C0 3.85 0 3.85 0 0 Z " fill="#c69a2a" transform="translate(597,753)"/>
<path d="M0 0 C1.32 0 2.64 0 4 0 C4 5.61 4 11.22 4 17 C2.68 17 1.36 17 0 17 C0 11.39 0 5.78 0 0 Z " fill="#c69a2a" transform="translate(621,753)"/>
<path d="M0 0 C1.32 0.33 2.64 0.66 4 1 C4 1.99 4 2.98 4 4 C2.68 4 1.36 4 0 4 C0 2.68 0 1.36 0 0 Z " fill="#c69a2a" transform="translate(453,766)"/>
<path d="M0 0 C1.32 0 2.64 0 4 0 C4 0.99 4 1.98 4 3 C2.68 3 1.36 3 0 3 C0 2.01 0 1.02 0 0 Z " fill="#c69a2a" transform="translate(488,767)"/>
</svg>
